<?xml version="1.0" encoding="UTF-8" standalone="no"?>
<svg
   xmlns:dc="http://purl.org/dc/elements/1.1/"
   xmlns:cc="http://creativecommons.org/ns#"
   xmlns:rdf="http://www.w3.org/1999/02/22-rdf-syntax-ns#"
   xmlns:svg="http://www.w3.org/2000/svg"
   xmlns="http://www.w3.org/2000/svg"
   xmlns:sodipodi="http://sodipodi.sourceforge.net/DTD/sodipodi-0.dtd"
   xmlns:inkscape="http://www.inkscape.org/namespaces/inkscape"
   version="1.0"
   width="510.000000pt"
   height="550.000000pt"
   viewBox="0 0 510.000000 550.000000"
   preserveAspectRatio="xMidYMid meet"
   id="svg4935"
   sodipodi:docname="d10icon (1).svg"
   inkscape:version="0.92.4 (5da689c313, 2019-01-14)">
  <metadata
     id="metadata4941">
    <rdf:RDF>
      <cc:Work
         rdf:about="">
        <dc:format>image/svg+xml</dc:format>
        <dc:type
           rdf:resource="http://purl.org/dc/dcmitype/StillImage" />
        <dc:title></dc:title>
      </cc:Work>
    </rdf:RDF>
  </metadata>
  <defs
     id="defs4939" />
  <sodipodi:namedview
     pagecolor="#ffffff"
     bordercolor="#666666"
     borderopacity="1"
     objecttolerance="10"
     gridtolerance="10"
     guidetolerance="10"
     inkscape:pageopacity="0"
     inkscape:pageshadow="2"
     inkscape:window-width="1920"
     inkscape:window-height="1027"
     id="namedview4937"
     showgrid="false"
     inkscape:zoom="0.58636364"
     inkscape:cx="448.99225"
     inkscape:cy="325.10776"
     inkscape:window-x="1912"
     inkscape:window-y="-8"
     inkscape:window-maximized="1"
     inkscape:current-layer="svg4935" />
  <g
     transform="translate(0.000000,550.000000) scale(0.100000,-0.100000)"
     fill="#000000"
     stroke="none"
     id="g4933">
    <path
       d="M1405 4720 l-1160 -671 4 -1347 c2 -741 6 -1350 10 -1354 12 -12 2295 -1331 2312 -1335 11 -3 199 100 476 259 252 145 774 446 1160 669 l703 404 -1 1355 0 1355 -1154 665 c-634 366 -1162 666 -1172 667 -10 2 -540 -299 -1178 -667z m1641 -463 l461 -682 -131 -6 c-72 -4 -430 -7 -796 -7 -366 0 -724 3 -796 7 l-131 6 461 682 c254 375 463 682 466 682 3 0 212 -307 466 -682z m-1022 415 c-21 -32 -191 -284 -378 -559 l-338 -500 -292 168 c-160 93 -291 173 -291 179 0 12 1326 782 1334 775 2 -3 -14 -31 -35 -63z m1791 -340 c341 -197 620 -364 620 -371 0 -15 -577 -353 -586 -343 -15 16 -741 1096 -746 1109 -8 21 17 7 712 -395z m-2967 -808 c158 -91 291 -169 296 -174 7 -7 -154 -346 -520 -1095 l-59 -119 -6 129 c-8 159 -11 1425 -4 1425 3 0 135 -75 293 -166z m3760 -614 c0 -316 -3 -620 -7 -675 l-7 -100 -31 65 c-17 36 -146 301 -287 590 -141 289 -258 533 -259 542 -1 13 72 60 288 185 l290 168 6 -100 c4 -55 7 -359 7 -675z m-1131 344 l60 -7 -468 -810 c-257 -445 -474 -816 -481 -824 -12 -11 -88 116 -489 809 l-475 823 46 6 c61 8 1732 11 1807 3z m-1642 -989 c297 -513 452 -792 446 -798 -7 -7 -56 -6 -143 2 -73 6 -421 31 -773 56 -597 41 -725 52 -725 59 0 2 145 299 321 662 177 362 339 697 361 743 24 52 43 80 49 74 5 -5 214 -364 464 -798z m2330 51 c195 -401 355 -731 355 -732 0 -8 -107 -17 -640 -54 -316 -22 -669 -47 -783 -56 -131 -10 -212 -13 -218 -7 -6 6 158 300 437 784 525 911 475 827 486 809 5 -8 168 -343 363 -744z m-2357 -1130 c331 -24 606 -46 609 -50 10 -10 15 -531 6 -612 l-8 -71 -668 385 c-426 247 -663 389 -655 394 7 4 36 5 63 2 28 -3 321 -25 653 -48z m2260 45 c10 -6 -110 -80 -385 -238 -219 -127 -519 -301 -668 -387 l-270 -156 -6 63 c-4 34 -7 189 -8 344 l-1 281 63 6 c34 4 316 24 627 46 311 22 572 42 580 44 28 7 55 6 68 -3z"
       id="path4927" />
    <path
       d="M2288 2959 c-46 -30 -48 -33 -48 -80 0 -27 3 -49 8 -49 4 0 22 9 40 20 18 11 37 20 42 20 6 0 10 -110 10 -295 l0 -295 50 0 50 0 0 355 0 355 -52 0 c-42 0 -63 -7 -100 -31z"
       id="path4929" />
    <path
       d="M2613 2974 c-20 -10 -40 -32 -53 -58 -18 -39 -20 -61 -20 -279 0 -257 4 -280 54 -327 38 -34 146 -41 193 -11 64 40 68 58 68 336 0 278 -4 296 -68 335 -40 25 -128 26 -174 4z m113 -82 c29 -19 34 -56 34 -257 0 -201 -5 -238 -34 -257 -19 -13 -45 -9 -66 12 -19 19 -20 33 -20 245 0 212 1 226 20 245 21 21 47 25 66 12z"
       id="path4931" />
  </g>
  <path
     style="fill:#ff0000;stroke:#ff0000;stroke-width:0.85271317"
     d="M 325.84496,721.69001 C 245.05274,675.37877 52.252767,563.95037 41.051439,557.09412 c -5.113939,-3.13021 -5.580544,-3.66871 -6.202388,-7.15809 -0.369838,-2.07528 -0.759264,-83.1876 -0.865393,-180.2496 L 33.790698,193.21006 99.875969,154.96194 C 233.03643,77.89273 326.07039,24.69525 340.12162,17.587755 l 4.47047,-2.261281 17.70008,9.926478 c 24.84676,13.934447 115.93867,66.141165 210.83961,120.836678 l 80.5814,46.44253 0.21515,180.84278 0.21515,180.84279 -2.48384,1.28444 c -2.99208,1.54727 -89.8683,51.50538 -181.67324,104.47108 -96.89322,55.90132 -123.60764,70.8214 -126.73281,70.78063 -0.8984,-0.0117 -8.73227,-4.09045 -17.40863,-9.06387 z m 111.70543,-89.38178 c 73.82451,-42.70377 99.14921,-57.6322 102.99497,-60.71358 1.79817,-1.44077 2.08852,-2.08624 1.30033,-2.89074 -0.7921,-0.8085 -3.31824,-0.81764 -11.51163,-0.0416 -12.77676,1.21008 -39.5216,3.2148 -103.44259,7.75377 -50.57003,3.59093 -62.43526,4.61096 -63.26294,5.43864 -0.68583,0.68583 1.13447,88.46281 1.87245,90.29159 0.33012,0.81805 0.84779,1.34512 1.15038,1.1713 0.30261,-0.17386 32.20717,-18.62806 70.89903,-41.00936 z m -114.79632,37.71115 c 1.74118,-9.3964 1.47442,-84.71292 -0.31027,-87.6006 -0.92865,-1.50259 -18.45231,-3.02247 -113.42054,-9.83727 -23.21512,-1.6659 -46.34008,-3.38466 -51.38881,-3.81949 -5.04872,-0.43483 -9.99246,-0.48985 -10.98611,-0.12228 -1.59873,0.59141 -1.13117,1.11156 4.06322,4.52029 11.53471,7.56945 61.961,37.16029 135.47612,79.49925 19.22532,11.07228 35.20211,20.13142 35.50399,20.13142 0.30188,0 0.77997,-1.2471 1.0624,-2.77132 z M 303.53325,538.1673 c 0.90214,-0.57186 0.56861,-1.85008 -1.60973,-6.16911 -6.40479,-12.69887 -31.97052,-57.64187 -79.49657,-139.75013 -35.69878,-61.67491 -39.05957,-67.36434 -39.79262,-67.36434 -1.63554,0 -4.46488,5.23707 -18.68261,34.58122 -8.39534,17.32723 -29.50846,60.80377 -46.91806,96.61454 -17.409598,35.81075 -31.653815,65.4116 -31.653815,65.77965 0,0.36804 0.863372,0.87977 1.918605,1.13719 2.645775,0.64541 35.48882,3.16861 113.19767,8.69651 36.3469,2.58557 72.41667,5.21603 80.15504,5.84546 17.58152,1.43005 21.45063,1.53641 22.88209,0.62901 z M 495.1547,531.246 c 87.90856,-6.27699 106.5165,-7.79574 107.49432,-8.77358 0.32791,-0.32791 -28.53288,-60.16981 -76.54982,-158.72348 -10.49314,-21.53692 -19.48727,-39.29431 -19.98695,-39.46087 -1.14197,-0.38066 -10.33607,15.10117 -53.01891,89.27782 -48.06152,83.52405 -69.26388,121.33073 -69.26388,123.50689 0,1.83961 14.8256,1.06363 111.32524,-5.82678 z M 353.84172,504.16667 c 29.77041,-50.35673 117.95151,-203.30884 117.48316,-203.77719 -0.23342,-0.23342 -5.33805,-0.80057 -11.34363,-1.26032 -11.89695,-0.91079 -235.70261,-0.28925 -240.51226,0.66792 -1.52422,0.30333 -2.77132,0.8365 -2.77132,1.18481 0,0.58337 56.10441,98.01458 88.64456,153.94059 27.32451,46.96201 37.56145,63.52713 39.25861,63.52713 0.43831,0 4.59671,-6.42732 9.24088,-14.28294 z M 111.31163,375.60486 c 32.42331,-66.94694 41.73652,-87.07117 41.08323,-88.77364 -0.22105,-0.57604 -5.12532,-3.8344 -10.89839,-7.2408 -20.45271,-12.06816 -66.603399,-38.27259 -67.404863,-38.27259 -0.934589,0 -0.235583,197.6272 0.720834,203.79845 l 0.594689,3.83721 10.315814,-20.90677 c 5.673699,-11.49873 17.188606,-35.09757 25.588686,-52.44186 z m 502.44079,61.19747 c 0.92721,-15.14477 0.92137,-169.50243 -0.007,-183.75969 -0.38935,-5.97966 -1.00499,-10.8721 -1.3681,-10.8721 -0.74542,0 -47.26839,26.92418 -62.24347,36.02209 -11.36163,6.9026 -14.4091,9.16293 -14.47433,10.73571 -0.0677,1.63249 6.40557,15.27107 43.14572,90.90406 17.9841,37.02215 32.69846,67.62389 32.69846,68.00387 0,0.37997 0.34441,0.69086 0.76536,0.69086 0.42094,0 1.08837,-5.27616 1.48318,-11.7248 z M 450.15577,257.81293 c 8.4903,-0.30753 15.88649,-0.83701 16.43597,-1.17661 0.91664,-0.56651 -36.58826,-56.70141 -99.6799,-149.19446 -19.66257,-28.825534 -22.21435,-32.411419 -23.04793,-32.387931 -0.74183,0.0209 -4.59106,5.597252 -46.19537,66.922811 -66.44091,97.9352 -77.39831,114.25982 -76.98214,114.68993 0.2269,0.23449 5.46586,0.6445 11.64214,0.91114 16.21803,0.70013 199.52707,0.898 217.82723,0.23512 z M 203.71255,208.87272 c 53.89463,-79.61227 70.96962,-105.19038 70.96962,-106.3115 0,-1.50502 -0.64028,-1.16419 -39.36117,20.95253 -63.69003,36.37866 -138.865155,80.67365 -138.845328,81.811 0.0058,0.33302 1.444759,1.5377 3.197674,2.67708 14.189194,9.22284 73.621224,43.6509 74.727894,43.28872 0.42107,-0.1378 13.61116,-19.22583 29.31131,-42.41783 z m 327.40603,33.18334 c 15.77571,-8.83448 43.09145,-25.04016 52.63997,-31.22989 8.00816,-5.1912 8.3991,-5.57782 6.82171,-6.74638 -8.18829,-6.06602 -158.59059,-93.62222 -171.98403,-100.11993 -2.21742,-1.07576 -4.29489,-1.69272 -4.61659,-1.37103 -0.3217,0.3217 7.78257,13.15279 18.00947,28.51354 25.46553,38.24907 74.19589,110.50154 78.21808,115.97389 l 3.29234,4.47937 3.59519,-1.82974 c 1.97737,-1.00636 8.2881,-4.45778 14.02386,-7.66983 z"
     id="path4943"
     inkscape:connector-curvature="0"
     transform="scale(0.75000001)" />
  <path
     style="fill:#ff0000;stroke:#ff0000;stroke-width:0.42635658"
     d="m 356.51483,428.9038 c -5.0488,-0.5319 -8.34229,-1.86257 -11.23225,-4.53816 -3.00976,-2.78651 -4.39824,-5.48883 -5.36125,-10.43427 -0.57448,-2.95019 -0.73003,-7.83447 -0.90425,-28.39231 -0.27688,-32.67136 0.11414,-37.35424 3.57959,-42.86946 1.29127,-2.05503 3.99682,-4.76708 5.56429,-5.57765 4.03941,-2.08886 13.43348,-2.75775 18.87005,-1.34362 5.77987,1.50343 10.04938,5.17987 11.51099,9.91201 1.5413,4.99014 1.85152,11.08135 1.85152,36.35516 0,25.30492 -0.30967,31.36326 -1.85963,36.38143 -2.34017,7.57659 -10.92952,11.67519 -22.01906,10.50687 z m 6.6833,-12.46 c 3.69382,-2.51399 4.16606,-4.62279 4.77381,-21.31783 0.35212,-9.6726 0.35212,-16.54833 0,-26.22093 -0.60944,-16.74148 -1.20811,-19.36672 -4.88808,-21.43498 -3.34077,-1.87762 -8.12301,-0.0194 -9.82003,3.81571 -1.08982,2.4629 -1.53696,11.403 -1.53696,30.72973 0,18.2624 0.46585,28.16747 1.4377,30.56908 1.63401,4.0379 6.83292,6.03756 10.03356,3.85922 z"
     id="path4945"
     inkscape:connector-curvature="0"
     transform="scale(0.75000001)" />
  <path
     style="fill:#ff0000;stroke:#ff0000;stroke-width:0.42635658"
     d="m 312.01703,396.8314 c -0.0137,-31.93924 -0.35992,-45.2053 -1.20167,-46.04705 -0.28212,-0.28212 -2.07136,0.45204 -5.32787,2.18614 -2.69671,1.436 -5.19025,2.61091 -5.54121,2.61091 -1.32804,0 -1.52399,-10.17924 -0.23685,-12.30387 0.8678,-1.43244 8.42006,-6.34763 11.32504,-7.3706 1.84954,-0.6513 3.99455,-0.9364 8.35119,-1.10998 l 5.8624,-0.23357 v 47.38886 47.38885 h -6.60853 -6.60852 z"
     id="path4947"
     inkscape:connector-curvature="0"
     transform="scale(0.75000001)" />
  <path
     style="fill:#ff0000;stroke:#ff0000;stroke-width:0.01884248"
     d="m 379.25269,347.48248 c -0.13548,-0.62646 -0.47453,-1.83635 -0.6614,-2.3602 -0.52361,-1.46785 -1.33447,-2.87503 -2.35233,-4.08229 -0.38251,-0.45369 -1.10212,-1.19655 -1.44952,-1.49636 -0.0649,-0.056 -0.11392,-0.10579 -0.10901,-0.1107 0.0111,-0.0111 0.37601,0.29207 0.68859,0.57215 0.32112,0.28772 0.89115,0.87164 1.12884,1.15634 1.14897,1.37618 1.9163,2.95893 2.50576,5.16851 0.11357,0.42572 0.29094,1.21062 0.2806,1.24167 -0.004,0.0123 -0.0183,-0.0278 -0.0315,-0.0891 z"
     id="path4949"
     inkscape:connector-curvature="0"
     transform="scale(0.75000001)" />
  <path
     style="fill:#ff0000;stroke:#ff0000;stroke-width:0.01884248"
     d="m 351.51444,343.00359 v -7.29747 l 0.27793,-0.0624 c 1.68636,-0.37873 3.31763,-0.60393 5.5444,-0.76541 0.59038,-0.0428 1.35599,-0.0691 2.28936,-0.0784 4.39753,-0.0443 7.59303,0.50805 10.58947,1.83051 1.5203,0.67097 3.10901,1.65786 4.25249,2.64159 0.10039,0.0864 0.19246,0.15701 0.2046,0.15701 0.0698,0 0.76629,0.61984 1.26244,1.12354 0.84123,0.85404 1.3836,1.61018 1.93098,2.69207 0.41813,0.82643 0.73829,1.66122 1.03702,2.70389 0.1738,0.60665 0.38685,1.51841 0.38138,1.63219 -0.001,0.0298 0.0453,0.28739 0.10381,0.57238 0.13989,0.68109 0.35215,1.95102 0.35215,2.10683 v 0.0412 l -7.04237,-4.5e-4 -7.04238,-4.5e-4 -0.10977,-0.20461 c -0.53184,-0.99134 -1.32516,-1.74921 -2.54702,-2.43321 -0.5958,-0.33353 -1.24298,-0.55352 -1.94077,-0.65971 -0.33826,-0.0515 -1.09582,-0.0709 -1.46361,-0.0376 -0.99048,0.0898 -2.00947,0.40907 -2.91838,0.91429 -0.30001,0.16676 -0.80833,0.51003 -1.09175,0.73728 -0.48175,0.38626 -1.06191,1.00055 -1.41414,1.49733 l -0.13264,0.18708 h -1.2616 -1.2616 z"
     id="path4951"
     inkscape:connector-curvature="0"
     transform="scale(0.75000001)" />
  <path
     style="fill:#ff0000;stroke:#ff0000;stroke-width:0.00666182"
     d="m 352.41882,335.47958 c 0,-0.0151 0.007,-0.0172 0.18819,-0.0569 1.45003,-0.31806 3.12525,-0.54276 4.79485,-0.64314 0.78938,-0.0475 1.34351,-0.0635 2.1984,-0.0636 0.92639,-9e-5 1.5998,0.0218 2.45821,0.08 0.50164,0.034 1.2279,0.10066 1.55554,0.14278 0.10366,0.0133 0.041,0.0116 -0.10659,-0.003 -1.43097,-0.1408 -3.24593,-0.18316 -5.13627,-0.11988 -0.56466,0.0189 -0.95526,0.0425 -1.65213,0.10001 -1.57982,0.13027 -2.84068,0.29737 -4.09321,0.54246 -0.10358,0.0203 -0.19252,0.0369 -0.19766,0.0369 -0.005,0 -0.009,-0.007 -0.009,-0.0157 z"
     id="path4953"
     inkscape:connector-curvature="0"
     transform="scale(0.75000001)" />
</svg>
