<?xml version="1.0" encoding="UTF-8" standalone="no"?>
<svg
   xmlns:dc="http://purl.org/dc/elements/1.1/"
   xmlns:cc="http://creativecommons.org/ns#"
   xmlns:rdf="http://www.w3.org/1999/02/22-rdf-syntax-ns#"
   xmlns:svg="http://www.w3.org/2000/svg"
   xmlns="http://www.w3.org/2000/svg"
   xmlns:sodipodi="http://sodipodi.sourceforge.net/DTD/sodipodi-0.dtd"
   xmlns:inkscape="http://www.inkscape.org/namespaces/inkscape"
   version="1.0"
   width="510.000000pt"
   height="550.000000pt"
   viewBox="0 0 510.000000 550.000000"
   preserveAspectRatio="xMidYMid meet"
   id="svg4981"
   sodipodi:docname="d12icon.svg"
   inkscape:version="0.92.4 (5da689c313, 2019-01-14)">
  <defs
     id="defs4985" />
  <sodipodi:namedview
     pagecolor="#ffffff"
     bordercolor="#666666"
     borderopacity="1"
     objecttolerance="10"
     gridtolerance="10"
     guidetolerance="10"
     inkscape:pageopacity="0"
     inkscape:pageshadow="2"
     inkscape:window-width="1920"
     inkscape:window-height="1027"
     id="namedview4983"
     showgrid="false"
     inkscape:zoom="1.4142136"
     inkscape:cx="373.86279"
     inkscape:cy="392.90198"
     inkscape:window-x="1912"
     inkscape:window-y="-8"
     inkscape:window-maximized="1"
     inkscape:current-layer="svg4981" />
  <metadata
     id="metadata4971">
Created by potrace 1.15, written by Peter Selinger 2001-2017
<rdf:RDF>
  <cc:Work
     rdf:about="">
    <dc:format>image/svg+xml</dc:format>
    <dc:type
       rdf:resource="http://purl.org/dc/dcmitype/StillImage" />
    <dc:title></dc:title>
  </cc:Work>
</rdf:RDF>
</metadata>
  <g
     transform="translate(0.000000,550.000000) scale(0.100000,-0.100000)"
     fill="#000000"
     stroke="none"
     id="g4979">
    <path
       d="M2545 5379 c-16 -10 -542 -315 -1168 -676 l-1138 -657 7 -1346 c5 -979 9 -1348 18 -1356 6 -7 497 -292 1091 -635 594 -342 1113 -642 1154 -666 l73 -43 1164 672 1164 672 0 1356 0 1356 -1164 672 c-640 370 -1165 672 -1167 671 -2 0 -17 -9 -34 -20z m499 -1120 c252 -374 456 -683 453 -686 -10 -9 -1202 -16 -1528 -8 l-316 7 461 684 c254 376 463 683 466 683 3 0 211 -306 464 -680z m-996 457 c-5 -20 -732 -1095 -741 -1096 -15 0 -587 334 -585 342 3 8 1307 766 1321 767 5 1 7 -5 5 -13z m1732 -364 c360 -208 655 -384 655 -391 0 -13 -557 -341 -578 -341 -12 1 -739 1070 -745 1096 -2 8 0 14 5 14 4 0 303 -170 663 -378z m-2924 -833 c154 -88 283 -164 288 -169 7 -7 -156 -349 -520 -1095 l-59 -119 -6 149 c-9 206 -10 1177 -2 1298 3 53 9 97 13 97 5 0 133 -72 286 -161z m3747 -21 c15 -391 5 -1372 -13 -1351 -4 4 -137 275 -295 602 -230 473 -286 595 -274 602 255 149 565 328 570 329 3 0 9 -82 12 -182z m-1132 -244 l66 -7 -471 -816 c-283 -489 -478 -816 -486 -816 -9 0 -203 327 -485 815 l-471 815 51 6 c68 8 1714 10 1796 3z m-1646 -974 c246 -426 452 -781 457 -788 18 -21 0 -27 -70 -26 -139 3 -1572 110 -1572 117 0 1 46 97 103 212 57 116 220 450 362 743 142 293 262 529 266 525 4 -5 208 -357 454 -783z m2281 155 c168 -347 330 -677 358 -735 28 -58 52 -108 54 -112 5 -11 -56 -17 -798 -70 -873 -62 -872 -62 -843 -26 6 7 212 362 458 788 246 426 449 779 452 783 3 5 7 7 8 5 2 -2 142 -287 311 -633z m-2308 -1249 c338 -25 616 -46 618 -49 10 -10 17 -414 9 -548 l-7 -136 -668 386 c-407 235 -664 389 -657 393 7 5 30 6 52 3 22 -3 316 -25 653 -49z m2266 45 c15 -6 -70 -59 -380 -238 -219 -127 -520 -301 -669 -387 l-270 -156 -8 93 c-9 97 -4 584 6 593 3 3 281 26 619 50 337 24 622 45 633 47 32 7 49 6 69 -2z"
       id="path4973" />
    <path
       d="M2278 3009 c-46 -30 -48 -33 -48 -80 0 -27 3 -49 8 -49 4 0 22 9 40 20 18 11 37 20 42 20 6 0 10 -110 10 -295 l0 -295 50 0 50 0 0 355 0 355 -52 0 c-42 0 -63 -7 -100 -31z"
       id="path4975" />
    <path
       d="M2593 3020 c-40 -24 -62 -66 -70 -131 l-6 -49 50 0 50 0 7 40 c8 50 44 78 81 62 70 -32 41 -132 -114 -400 -59 -102 -71 -132 -71 -168 l0 -44 160 0 160 0 0 50 0 50 -95 0 c-52 0 -95 2 -95 4 0 2 34 67 75 144 42 77 85 165 95 196 39 110 14 223 -54 251 -51 22 -134 19 -173 -5z"
       id="path4977" />
  </g>
  <path
     style="fill:#ff0000;stroke:#ff0000;stroke-width:0.77683616"
     d="M 334.48446,727.33673 C 329.7846,724.54969 294.12782,703.91119 255.24718,681.47339 165.00777,629.39674 65.612492,571.83721 48.608757,561.80964 l -13.206215,-7.78807 -0.51892,-8.41968 C 34.345628,536.87274 32.937444,363.47706 32.528909,255.65624 L 32.295197,193.97489 74.632768,169.53198 C 187.75684,104.22164 309.16184,34.040539 325.55085,24.482721 l 18.25565,-10.646416 3.88418,2.1344 c 7.78251,4.276573 87.194,49.977831 195.37429,112.437765 l 110.69915,63.91424 0.16887,180.97494 0.16887,180.97495 -72.02621,41.51515 c -39.61442,22.83333 -109.14454,62.9472 -154.51139,89.14195 -45.36683,26.19473 -82.94628,47.5925 -83.50988,47.55058 -0.5636,-0.042 -4.87006,-2.35651 -9.56992,-5.14355 z m 101.37712,-94.02754 c 97.47807,-56.36269 107.86903,-62.66458 106.17183,-64.39091 -0.9873,-1.00425 -5.79313,-0.79527 -33.92607,1.47519 -14.3132,1.15514 -40.70621,3.15911 -58.65113,4.45327 -41.96027,3.0261 -81.22163,6.18518 -82.81733,6.66373 -1.90779,0.57214 -2.25571,7.35782 -2.26384,44.15273 -0.007,30.24774 0.29637,41.41925 1.25119,46.12298 0.31671,1.56018 0.5589,1.65838 2.08707,0.84617 0.95084,-0.50535 31.61756,-18.20077 68.14828,-39.32316 z m -113.08284,37.68304 c 1.56949,-5.31189 1.17879,-87.88687 -0.42342,-89.48907 -0.35162,-0.35163 -61.14109,-5.07261 -120.70984,-9.37446 -20.93573,-1.5119 -41.45755,-3.08382 -45.60403,-3.49315 -4.21437,-0.41602 -8.32419,-0.45378 -9.31946,-0.0856 -1.62104,0.59966 -1.18959,1.03929 4.82013,4.91153 9.43488,6.07917 46.90645,28.12277 99.43246,58.49367 24.9947,14.45211 51.03813,29.53308 57.87429,33.51326 6.83616,3.98019 12.65079,7.24458 12.9214,7.2542 0.27061,0.01 0.72443,-0.76904 1.00847,-1.73038 z M 304.69269,536.9881 c 0.62777,-0.62777 0.0301,-2.28691 -2.21856,-6.15884 -1.69279,-2.91478 -23.61589,-40.78159 -48.718,-84.14847 -25.10211,-43.36688 -51.29096,-88.56205 -58.19746,-100.4337 l -12.55726,-21.58485 -1.45089,1.77552 c -1.76094,2.15494 -27.05169,53.02456 -62.2914,125.29247 -30.370402,62.28217 -34.131835,70.18143 -33.648724,70.66453 0.826123,0.82613 124.114784,10.38461 195.272374,15.13933 12.4381,0.83111 22.66739,0.59655 23.80992,-0.54599 z m 116.79742,-0.59125 c 35.08161,-2.29388 138.6061,-9.76603 156.92091,-11.32618 21.14701,-1.80142 24.19267,-2.29749 23.83253,-3.88178 -0.26388,-1.16084 -39.23679,-81.43828 -74.73425,-153.9396 -11.66241,-23.81973 -21.46397,-43.30861 -21.78124,-43.30861 -0.31727,0 -8.89108,14.42002 -19.0529,32.04449 -34.5948,60.00051 -100.61821,173.98597 -102.54792,177.04283 -1.05783,1.67571 -1.71531,3.38332 -1.46108,3.79468 0.6816,1.10285 18.42052,0.90828 38.82395,-0.42583 z m -75.02023,-21.16989 c 4.13357,-6.36184 28.05746,-46.62795 46.03418,-77.47978 26.24777,-45.04667 78.19771,-135.12481 78.73144,-136.51568 0.3454,-0.9001 -0.56599,-1.24826 -4.28533,-1.637 -17.51435,-1.83061 -247.56081,-1.08838 -249.45405,0.80486 -0.69947,0.69947 7.04661,14.68831 33.11783,59.80838 68.46324,118.48569 91.8146,157.96077 93.42439,157.93236 0.29975,-0.005 1.39394,-1.3162 2.43154,-2.91314 z M 91.739725,415.80155 c 35.445175,-72.83187 57.556445,-119.26316 60.571935,-127.1945 0.90843,-2.38934 3.28253,-0.81485 -32.02376,-21.23804 -34.294637,-19.83801 -44.083773,-25.27276 -44.597039,-24.7595 -1.761439,1.76145 -2.148988,17.64547 -2.173907,89.09953 -0.0257,73.69308 0.659807,116.52542 1.864923,116.52542 0.315529,0 7.67656,-14.59481 16.357848,-32.43291 z M 613.8222,426.44334 c 1.88323,-44.31054 0.77799,-181.17927 -1.4815,-183.4615 -0.30292,-0.30597 -12.25593,6.20375 -26.56225,14.46603 -52.35028,30.23369 -50.12181,28.85531 -49.82648,30.81916 0.62917,4.1837 10.17023,24.54859 46.92133,100.15105 27.71025,57.00411 28.78052,59.12302 29.49966,58.40388 0.33495,-0.33496 0.98712,-9.50534 1.44924,-20.37862 z M 438.71045,258.02912 c 14.59831,-0.27937 26.79074,-0.75651 27.09431,-1.06033 0.30355,-0.30382 -1.14407,-3.27522 -3.21697,-6.60311 C 448.84429,228.3014 346.21095,76.210669 344.24534,74.995854 c -0.65541,-0.405068 -13.94299,18.810864 -56.11298,81.148216 -51.02749,75.43087 -67.59452,100.33068 -67.09027,100.83494 0.28645,0.28643 9.67286,0.72477 20.85871,0.97408 28.49562,0.63512 164.8421,0.68779 196.80965,0.0761 z M 185.54644,235.18715 c 34.02974,-49.22075 87.95638,-129.83616 87.95638,-131.48674 0,-0.63692 -0.35975,-1.15804 -0.79944,-1.15804 -1.22444,0 -59.10895,33.25623 -127.76694,73.40561 -45.907351,26.84539 -48.63409,28.50286 -48.340385,29.38397 0.520555,1.56167 75.437895,45.58332 77.578915,45.5856 0.27258,2.9e-4 5.38974,-7.07839 11.37147,-15.7304 z m 341.98181,8.89726 c 14.43411,-8.04492 46.93266,-27.30995 56.18593,-33.30685 4.19853,-2.72099 7.50303,-5.33921 7.34333,-5.81829 -0.58652,-1.75959 -51.40589,-31.83422 -126.45299,-74.8342 -40.19796,-23.03236 -48.33072,-27.5827 -49.29815,-27.5827 -1.95064,0 2.47611,7.3993 21.24908,35.51778 23.41384,35.06965 49.97715,74.0562 66.71727,97.91986 9.15011,13.04382 10.71157,14.90446 12.13481,14.45983 0.89839,-0.28066 6.35271,-3.14061 12.12072,-6.35543 z"
     id="path4987"
     inkscape:connector-curvature="0"
     transform="scale(0.75000001)" />
  <path
     style="fill:#ff0000;stroke:#ff0000;stroke-width:0.04855226"
     d="m 654.28165,319.97559 c -0.0178,-10.29874 -0.0324,-25.66917 -0.0324,-34.15651 v -15.43154 h 0.19421 0.19421 v 34.15651 34.15651 h -0.16186 -0.16186 z"
     id="path4989"
     inkscape:connector-curvature="0"
     transform="scale(0.75000001)" />
  <path
     style="fill:#ff0000;stroke:#ff0000;stroke-width:0.09710452"
     d="m 654.24495,259.16962 c -0.014,-6.12851 -0.0364,-19.17208 -0.0499,-28.9857 l -0.0245,-17.84296 h 0.24327 0.24327 v 28.9857 c 0,28.88029 -7e-4,28.9857 -0.19339,28.9857 -0.19186,0 -0.1936,-0.0889 -0.2188,-11.14274 z"
     id="path4991"
     inkscape:connector-curvature="0"
     transform="scale(0.75000001)" />
  <path
     style="fill:#ff0000;stroke:#ff0000;stroke-width:0.09710452"
     d="m 654.17162,202.29064 c 0,-5.47426 0.0247,-9.95321 0.0549,-9.95321 0.0302,0 0.13946,0.0452 0.24277,0.10052 0.1838,0.0984 0.18782,0.31153 0.18782,9.95321 v 9.8527 h -0.24276 -0.24276 z"
     id="path4993"
     inkscape:connector-curvature="0"
     transform="scale(0.75000001)" />
  <path
     style="fill:#ff0000;stroke:#ff0000;stroke-width:0.54930609"
     d="m 336.33362,417.75838 c 0.0251,-6.01208 1.22342,-8.93073 10.09264,-24.58145 13.49182,-23.80783 19.00168,-36.4622 19.00168,-43.64081 0,-4.31175 -0.88847,-6.33638 -3.48469,-7.94093 -5.58328,-3.45066 -11.00406,0.40759 -12.46667,8.87319 l -0.64061,3.70781 h -6.46781 -6.4678 l 0.26178,-2.6092 c 0.88818,-8.8527 3.57734,-15.78001 7.39391,-19.04686 3.56115,-3.0482 6.7536,-3.88831 14.73091,-3.87651 6.00702,0.009 7.22565,0.17135 9.73757,1.29816 3.66843,1.6456 6.79391,5.04462 8.43489,9.17309 1.128,2.83792 1.29455,4.19397 1.3101,10.66688 0.015,6.25776 -0.18121,8.04919 -1.25679,11.47331 -1.61841,5.15222 -6.76893,15.8823 -15.94323,33.21453 -3.97446,7.50863 -7.2263,13.83929 -7.2263,14.06812 0,0.71941 5.42443,1.10869 15.5179,1.11363 l 9.75018,0.005 v 6.31702 6.31702 H 357.463 336.31471 Z"
     id="path4997"
     inkscape:connector-curvature="0"
     transform="scale(0.75000001)" />
  <path
     style="fill:#ff0000;stroke:#ff0000;stroke-width:0.54930609"
     d="m 311.0193,396.33544 c -0.0308,-29.23221 -0.67269,-51.31858 -1.51604,-52.16192 -0.38034,-0.38035 -2.23517,0.34587 -5.78362,2.26446 -3.43718,1.85843 -5.35226,2.61641 -5.59956,2.21627 -0.76039,-1.23035 -0.55855,-10.18927 0.26422,-11.7275 0.99611,-1.8623 7.6226,-6.31453 11.28116,-7.57962 1.89657,-0.65582 4.50801,-0.95804 8.38482,-0.97039 l 5.63039,-0.0179 v 46.96567 46.96567 h -6.31702 -6.31702 l -0.0273,-25.95471 z"
     id="path4999"
     inkscape:connector-curvature="0"
     transform="scale(0.75000001)" />
  <path
     style="fill:#ff0000;stroke:#ff0000;stroke-width:0.06866326"
     d="m 378.04589,350.30304 c 0,-1.88541 -0.0204,-3.85428 -0.0454,-4.37526 -0.0383,-0.79912 -0.0303,-0.94219 0.0515,-0.915 0.1261,0.0419 0.23237,0.98082 0.33905,2.9957 0.10796,2.03896 -0.0554,5.62688 -0.25929,5.69424 -0.0679,0.0224 -0.0858,-0.68791 -0.0858,-3.39968 z"
     id="path5001"
     inkscape:connector-curvature="0"
     transform="scale(0.75000001)" />
  <path
     style="fill:#ff0000;stroke:#ff0000;stroke-width:0.06866326"
     d="m 378.08022,353.65097 c -0.0233,-0.0378 -0.01,-0.0687 0.0303,-0.0687 0.04,0 0.0727,0.0309 0.0727,0.0687 0,0.0378 -0.0136,0.0687 -0.0303,0.0687 -0.0167,0 -0.0494,-0.0309 -0.0727,-0.0687 z"
     id="path5003"
     inkscape:connector-curvature="0"
     transform="scale(0.75000001)" />
  <path
     style="fill:#ff0000;stroke:#ff0000;stroke-width:0.06866326"
     d="m 377.98981,354.09267 c 0.012,-0.14269 0.0624,-0.27281 0.11215,-0.28915 0.0664,-0.0218 0.0846,0.0392 0.0687,0.2297 -0.012,0.14269 -0.0624,0.27281 -0.11215,0.28915 -0.0664,0.0218 -0.0846,-0.0392 -0.0687,-0.2297 z"
     id="path5005"
     inkscape:connector-curvature="0"
     transform="scale(0.75000001)" />
  <path
     style="fill:#ff0000;stroke:#ff0000;stroke-width:0.06866326"
     d="m 357.16998,372.65352 c 4.57139,-9.27929 6.92963,-15.41884 7.72338,-20.10739 0.40204,-2.37476 0.33528,-5.29725 -0.15985,-6.99743 -0.33581,-1.15312 -0.73211,-1.83741 -1.51217,-2.61111 -1.14103,-1.13172 -2.60559,-1.91169 -4.19392,-2.23352 -0.75369,-0.15272 -2.01906,-0.10587 -2.71099,0.10038 -2.20925,0.6585 -4.09514,2.55095 -5.30943,5.32789 -0.68504,1.5666 -1.01692,2.84147 -1.56398,6.00784 -0.21203,1.22725 -0.42133,2.25415 -0.4651,2.282 -0.10746,0.0684 -13.28026,0.0672 -13.32252,-0.001 -0.0417,-0.0674 0.32036,-3.60838 0.50985,-4.98696 0.52092,-3.78981 1.46588,-7.49592 2.6013,-10.20231 0.78632,-1.87428 1.94086,-3.91227 2.87847,-5.08108 0.54989,-0.68548 1.4818,-1.60792 2.24089,-2.2181 2.25272,-1.81082 4.41181,-2.72653 7.47981,-3.17232 2.02914,-0.29485 3.09593,-0.34334 7.42012,-0.33732 5.08693,0.007 5.98755,0.0895 7.89517,0.72283 4.32445,1.43561 7.98342,4.97894 9.89694,9.58414 0.81262,1.95573 1.33061,4.21018 1.33061,5.79129 0,0.21555 0.0394,0.3705 0.11277,0.44391 0.25068,0.25068 0.40108,2.05996 0.39668,4.77213 -0.004,2.48815 -0.10414,3.76268 -0.30671,3.90501 -0.15799,0.11101 -0.17922,0.2278 -0.0311,0.17095 0.0799,-0.0307 0.10299,0.0164 0.10299,0.2103 0,0.15182 -0.038,0.26442 -0.097,0.28703 -0.0697,0.0268 -0.10927,0.22377 -0.1408,0.70165 -0.16117,2.44307 -0.56203,4.43577 -1.38367,6.87846 -0.95234,2.83123 -2.72156,6.91999 -5.26624,12.17056 l -0.72379,1.49343 h -7.41547 -7.41547 z"
     id="path5007"
     inkscape:connector-curvature="0"
     transform="scale(0.75000001)" />
  <path
     style="fill:#ff0000;stroke:#ff0000;stroke-width:0.06866326"
     d="m 357.16998,372.65352 c 4.57139,-9.27929 6.92963,-15.41884 7.72338,-20.10739 0.40204,-2.37476 0.33528,-5.29725 -0.15985,-6.99743 -0.33581,-1.15312 -0.73211,-1.83741 -1.51217,-2.61111 -1.14103,-1.13172 -2.60559,-1.91169 -4.19392,-2.23352 -0.75369,-0.15272 -2.01906,-0.10587 -2.71099,0.10038 -2.20925,0.6585 -4.09514,2.55095 -5.30943,5.32789 -0.68504,1.5666 -1.01692,2.84147 -1.56398,6.00784 -0.21203,1.22725 -0.42133,2.25415 -0.4651,2.282 -0.10746,0.0684 -13.28026,0.0672 -13.32252,-0.001 -0.0417,-0.0674 0.32036,-3.60838 0.50985,-4.98696 0.52092,-3.78981 1.46588,-7.49592 2.6013,-10.20231 0.78632,-1.87428 1.94086,-3.91227 2.87847,-5.08108 0.54989,-0.68548 1.4818,-1.60792 2.24089,-2.2181 2.25272,-1.81082 4.41181,-2.72653 7.47981,-3.17232 2.02914,-0.29485 3.09593,-0.34334 7.42012,-0.33732 5.08693,0.007 5.98755,0.0895 7.89517,0.72283 4.32445,1.43561 7.98342,4.97894 9.89694,9.58414 0.81139,1.95277 1.33061,4.21039 1.33061,5.78569 0,0.22053 0.0418,0.37374 0.12962,0.47498 0.13588,0.15668 0.17514,0.38119 0.28369,1.62248 0.16863,1.92835 0.13832,5.37319 -0.0589,6.68908 -0.0611,0.40777 -0.20105,0.4443 -0.2353,0.0614 -0.0236,-0.26374 -0.0278,-0.25318 -0.0385,0.0965 -0.01,0.32381 0.006,0.38572 0.091,0.35313 0.0799,-0.0307 0.10299,0.0164 0.10299,0.2103 0,0.15182 -0.038,0.26442 -0.097,0.28703 -0.0697,0.0268 -0.10927,0.22377 -0.1408,0.70165 -0.16117,2.44307 -0.56203,4.43577 -1.38367,6.87846 -0.95234,2.83123 -2.72156,6.91999 -5.26624,12.17056 l -0.72379,1.49343 h -7.41547 -7.41547 z"
     id="path5009"
     inkscape:connector-curvature="0"
     transform="scale(0.75000001)" />
  <path
     style="fill:#ff0000;stroke:#ff0000;stroke-width:0.06866326"
     d="m 355.73032,375.53123 c 0,-0.0128 0.53678,-1.11745 1.19283,-2.45471 4.15543,-8.47018 6.28336,-13.6765 7.42506,-18.16662 0.8851,-3.48094 1.01675,-6.75924 0.37177,-9.25821 -0.46572,-1.80446 -1.69897,-3.2179 -3.6688,-4.20483 -1.22236,-0.61244 -2.10091,-0.80496 -3.45829,-0.75783 -0.77844,0.027 -1.02789,0.0636 -1.48492,0.21772 -1.89595,0.63936 -3.60408,2.29741 -4.77218,4.63227 -0.70467,1.40852 -1.17209,2.91202 -1.57199,5.05643 -0.11268,0.60424 -0.31647,1.70113 -0.45286,2.43755 -0.1364,0.73641 -0.27318,1.36415 -0.30396,1.39498 -0.0599,0.06 -13.31589,0.0803 -13.37569,0.0205 -0.0196,-0.0196 0.0316,-0.72455 0.11362,-1.56664 0.74912,-7.68763 2.15009,-12.78872 4.6617,-16.97374 1.20765,-2.01228 2.72821,-3.59621 4.73768,-4.93514 2.07452,-1.38228 4.36391,-2.09621 7.90817,-2.46613 1.20866,-0.12615 9.73464,-0.12632 10.84879,-2.1e-4 1.62301,0.1837 3.01088,0.59412 4.60044,1.36043 1.54784,0.74621 2.84062,1.67345 4.17866,2.99714 1.43975,1.4243 2.48342,2.87363 3.37389,4.68527 1.08424,2.20586 1.66746,4.20754 1.86056,6.38568 0.0435,0.49095 0.1207,0.95951 0.17152,1.04126 0.25122,0.40418 0.4044,2.85537 0.349,5.58475 -0.0423,2.08635 -0.12495,3.00392 -0.28135,3.12505 -0.0736,0.057 -0.0728,0.0854 0.005,0.15768 0.0978,0.0914 0.0658,0.383 -0.0596,0.54249 -0.0359,0.0457 -0.0941,0.43191 -0.12919,0.85829 -0.20663,2.50798 -0.63424,4.50079 -1.50708,7.02357 -0.94762,2.73888 -2.80507,7.00517 -5.17925,11.89592 l -0.67497,1.39043 h -7.43908 c -4.09149,0 -7.43908,-0.0105 -7.43908,-0.0233 z"
     id="path5011"
     inkscape:connector-curvature="0"
     transform="scale(0.75000001)" />
  <path
     style="fill:#ff0000;stroke:#ff0000;stroke-width:0.04855226"
     d="m 298.21083,349.21096 c -0.17815,-0.19789 -0.16829,-0.20629 0.24393,-0.20772 0.33803,-0.001 0.47738,-0.0304 0.95419,-0.20021 0.30709,-0.10937 0.59658,-0.21487 0.64331,-0.23445 0.0527,-0.0221 0.085,-0.0141 0.085,0.021 0,0.10959 -1.47549,0.73066 -1.73584,0.73066 -0.0507,0 -0.13647,-0.0492 -0.19056,-0.10924 z"
     id="path5013"
     inkscape:connector-curvature="0"
     transform="scale(0.75000001)" />
  <path
     style="fill:#ff0000;stroke:#ff0000;stroke-width:0.04855226"
     d="m 310.52721,369.57863 c -2.4e-4,-0.9291 -0.11399,-6.27277 -0.19407,-9.11569 -0.25328,-8.99102 -0.59137,-14.64311 -0.95076,-15.89457 l -0.0749,-0.26075 -0.25184,0.0328 c -0.78969,0.10292 -2.49517,0.8615 -5.13134,2.28236 -1.1825,0.63734 -2.97093,1.54381 -3.45615,1.75175 -0.17849,0.0765 -0.33373,0.17427 -0.34498,0.21728 -0.0336,0.12836 -1.1991,0.64609 -1.60155,0.71142 -0.19581,0.0318 -0.34027,-0.0521 -0.43041,-0.25009 -0.0243,-0.0534 -0.0985,-0.17164 -0.16481,-0.26275 -0.35994,-0.4944 -0.53024,-2.1069 -0.52863,-5.00517 0.001,-1.9358 0.053,-2.9979 0.21917,-4.48809 0.1592,-1.42725 0.32451,-2.14614 0.60263,-2.62072 1.07583,-1.83575 7.40192,-6.11147 11.06523,-7.47883 1.35857,-0.5071 3.05293,-0.81748 5.46665,-1.00142 0.45687,-0.0348 2.41703,-0.0662 4.98874,-0.08 l 4.23619,-0.0226 v 21.17344 21.17343 h -6.72449 -6.72449 z"
     id="path5015"
     inkscape:connector-curvature="0"
     transform="scale(0.75000001)" />
  <path
     style="fill:#ff0000;stroke:#ff0000;stroke-width:0.04855226"
     d="m 310.52692,370.20981 c -8.4e-4,-0.39797 -0.0925,-4.84606 -0.14523,-7.05222 -0.24525,-10.24971 -0.62758,-17.21675 -1.02113,-18.60765 -0.0477,-0.16857 -0.0649,-0.18207 -0.23228,-0.18207 -0.6202,0 -2.17698,0.67565 -4.98592,2.16392 -0.93439,0.49508 -2.2033,1.14912 -2.81979,1.45344 -0.61649,0.30432 -1.15178,0.59093 -1.18953,0.63693 -0.14409,0.17555 -1.41234,0.69804 -1.69436,0.69804 -0.16662,0 -0.2425,-0.0654 -0.45037,-0.38842 -0.29496,-0.45831 -0.41552,-0.97709 -0.5303,-2.28196 -0.0833,-0.94722 -0.0832,-4.86169 2.4e-4,-5.8991 0.18448,-2.29476 0.37618,-3.35892 0.72446,-4.0217 0.8866,-1.68719 6.84945,-5.80734 10.69393,-7.38918 0.97152,-0.39974 2.14356,-0.70623 3.42293,-0.89509 1.8515,-0.27333 3.12478,-0.3292 8.16892,-0.35845 l 3.5079,-0.0203 v 21.18724 21.18723 h -6.72449 -6.72449 l -4.9e-4,-0.23062 z"
     id="path5017"
     inkscape:connector-curvature="0"
     transform="scale(0.75000001)" />
  <path
     style="fill:#ff0000;stroke:#ff0000;stroke-width:0.02427613"
     d="m 297.3714,340.57633 c 0,-0.45193 0.0843,-1.40628 0.17145,-1.94139 0.0558,-0.34238 0.1624,-0.79858 0.1945,-0.83215 0.05,-0.0523 0.0459,0.0278 -0.0229,0.43882 -0.0897,0.53586 -0.15836,1.10096 -0.22947,1.88835 -0.0371,0.41076 -0.0641,0.60833 -0.0841,0.61499 -0.0213,0.007 -0.0294,-0.0396 -0.0294,-0.16862 z"
     id="path5019"
     inkscape:connector-curvature="0"
     transform="scale(0.75000001)" />
  <path
     style="fill:#ff0000;stroke:#ff0000;stroke-width:0.02427613"
     d="m 312.7186,328.31908 c 0.029,-0.0881 1.64347,-0.24065 3.05411,-0.28863 0.86204,-0.0293 7.58231,-0.0332 7.56449,-0.004 -0.007,0.0111 -1.29933,0.0275 -2.87208,0.0363 -4.36528,0.0245 -5.84287,0.0707 -7.15644,0.2237 -0.60685,0.0707 -0.60241,0.0705 -0.59008,0.0331 z"
     id="path5021"
     inkscape:connector-curvature="0"
     transform="scale(0.75000001)" />
  <path
     style="fill:#ff0000;stroke:#ff0000;stroke-width:0.02427613"
     d="m 312.5499,328.33955 c 0.0156,-0.0474 0.16402,-0.0542 0.16402,-0.008 0,0.0274 -0.0243,0.0379 -0.087,0.0379 -0.0587,0 -0.0838,-0.01 -0.077,-0.0303 z"
     id="path5023"
     inkscape:connector-curvature="0"
     transform="scale(0.75000001)" />
  <path
     style="fill:#ff0000;stroke:#ff0000;stroke-width:0.01213806"
     d="m 311.14625,328.6064 c 0.008,-0.0242 0.57726,-0.15199 1.06515,-0.23905 0.15021,-0.0268 0.28676,-0.0512 0.30345,-0.0542 0.0273,-0.005 0.0302,-0.002 0.0292,0.033 l -0.001,0.0384 -0.15057,0.021 c -0.26706,0.0373 -0.67767,0.10687 -0.95644,0.16208 -0.3055,0.0605 -0.29646,0.0593 -0.28962,0.0388 z"
     id="path5025"
     inkscape:connector-curvature="0"
     transform="scale(0.75000001)" />
  <path
     style="fill:#ff0000;stroke:#ff0000;stroke-width:0.00858291"
     d="m 310.7558,328.70218 c 0.002,-0.006 0.0787,-0.0305 0.17065,-0.0547 0.23339,-0.0614 0.22171,-0.0594 0.21616,-0.0381 -0.005,0.0198 0.002,0.0176 -0.22177,0.0684 -0.17467,0.0397 -0.16977,0.039 -0.16504,0.0244 z"
     id="path5031"
     inkscape:connector-curvature="0"
     transform="scale(0.75000001)" />
  <path
     style="fill:#ff0000;stroke:#ff0000;stroke-width:0.04855226"
     d="m 353.50376,328.34229 c 0.018,-0.0543 0.63387,-0.12998 1.82886,-0.22467 0.98942,-0.0784 3.99208,-0.0792 4.92805,-10e-4 0.98728,0.0822 2.12736,0.20908 2.19342,0.24418 0.0314,0.0167 -1.97318,0.0303 -4.45467,0.0303 -2.98624,0 -4.50634,-0.0164 -4.49566,-0.0486 z"
     id="path5033"
     inkscape:connector-curvature="0"
     transform="scale(0.75000001)" />
  <path
     style="fill:#ff0000;stroke:#ff0000;stroke-width:0.04855226"
     d="m 361.11853,363.99195 c 0.50583,-1.17546 1.34276,-3.28498 1.72888,-4.35772 1.66874,-4.63621 2.30857,-7.76443 2.22918,-10.8987 -0.0795,-3.14019 -0.75268,-4.86437 -2.43596,-6.23944 -0.746,-0.60941 -1.85251,-1.21857 -2.72881,-1.50228 -1.15199,-0.37297 -2.78094,-0.39398 -3.82048,-0.0493 -1.79959,0.59674 -3.49794,2.2256 -4.66427,4.47341 -0.78635,1.51551 -1.25086,3.05756 -1.77413,5.88957 -0.43734,2.36696 -0.59485,3.12557 -0.65367,3.14814 -0.12652,0.0486 -8.37324,0.0921 -10.81774,0.0571 l -2.56113,-0.0367 1.7e-4,-0.24912 c 9e-5,-0.13701 0.0333,-0.59869 0.0739,-1.02595 0.7477,-7.88111 2.13728,-13.02909 4.65509,-17.24576 1.60573,-2.68917 3.99355,-4.8406 6.7292,-6.06304 1.70403,-0.76145 4.11198,-1.28856 6.67594,-1.46139 0.39995,-0.027 0.50172,-0.044 0.32456,-0.0544 -0.17334,-0.0102 -0.25177,-0.0342 -0.23891,-0.0732 0.0571,-0.17326 3.36532,-0.31893 5.38191,-0.23698 1.70587,0.0693 3.08852,0.20415 3.03196,0.29567 -0.0133,0.0215 0.33025,0.0543 0.76335,0.0729 2.06485,0.0889 3.79021,0.55305 5.77592,1.55395 1.40652,0.70896 2.68583,1.65347 3.94821,2.91494 1.49389,1.49283 2.44453,2.822 3.37013,4.71208 1.01675,2.07622 1.58353,4.01416 1.82339,6.23454 0.0445,0.41147 0.11251,0.85936 0.15123,0.99532 0.22939,0.80536 0.29014,1.36166 0.35889,3.28665 0.0739,2.07024 -0.0265,4.789 -0.20123,5.4491 -0.0271,0.10238 -0.0353,0.24979 -0.0182,0.32759 0.0195,0.0888 -0.005,0.2455 -0.0651,0.42077 -0.0529,0.15362 -0.12127,0.53057 -0.15196,0.83767 -0.33326,3.33464 -0.8552,5.46148 -2.17449,8.86079 l -0.28265,0.72828 -7.38636,0.0123 -7.38637,0.0123 z"
     id="path5035"
     inkscape:connector-curvature="0"
     transform="scale(0.75000001)" />
  <path
     style="fill:#ff0000;stroke:#ff0000;stroke-width:0.04855226"
     d="m 372.3223,332.46185 c -0.28197,-0.26896 -0.33994,-0.35676 -0.23555,-0.35676 0.0626,0 0.62758,0.5312 0.62758,0.59002 0,0.0967 -0.12251,0.0238 -0.39203,-0.23326 z"
     id="path5037"
     inkscape:connector-curvature="0"
     transform="scale(0.75000001)" />
  <path
     style="fill:#ff0000;stroke:#ff0000;stroke-width:0.04855226"
     d="m 360.78526,364.72007 c 0.0138,-0.0334 0.19305,-0.45396 0.39823,-0.93463 0.54367,-1.27368 1.32019,-3.24871 1.7371,-4.41825 1.65643,-4.64667 2.25846,-7.76763 2.11909,-10.98548 -0.12191,-2.81441 -0.71629,-4.34924 -2.20162,-5.6851 -0.70469,-0.63378 -1.9806,-1.37079 -2.89525,-1.67239 -0.83414,-0.27506 -2.27254,-0.37989 -3.15363,-0.22984 -1.71745,0.29249 -3.44942,1.61545 -4.77204,3.64514 -1.01634,1.55967 -1.67868,3.41204 -2.2127,6.18826 -0.59946,3.11649 -0.73585,3.78301 -0.78397,3.83113 -0.0627,0.0627 -11.20277,0.10951 -12.56978,0.0528 l -0.84476,-0.0351 0.03,-0.61353 c 0.0165,-0.33743 0.0755,-1.03956 0.131,-1.56029 0.79357,-7.4401 2.14742,-12.30642 4.53451,-16.29899 1.41554,-2.36757 3.39877,-4.30774 5.73681,-5.61226 1.76751,-0.98618 4.16303,-1.64844 6.92169,-1.91356 0.62398,-0.06 0.85089,-0.0983 0.83449,-0.14107 -0.029,-0.0754 0.0625,-0.10152 0.56712,-0.16171 2.11567,-0.25232 6.51956,-0.16305 8.04812,0.16314 0.17993,0.0384 0.58255,0.0831 0.89472,0.0994 2.8481,0.14827 5.91581,1.39148 8.22868,3.33472 0.29983,0.25192 0.47427,0.36663 0.53407,0.35121 0.10915,-0.0281 0.70884,0.56173 0.60878,0.5988 -0.0384,0.0142 0.14031,0.23289 0.46151,0.56472 1.17825,1.2172 2.0597,2.47577 2.87804,4.10933 1.10037,2.19655 1.61602,3.91093 1.94248,6.45823 0.0551,0.4301 0.1531,1.00477 0.21773,1.27707 0.16341,0.68851 0.21082,1.18957 0.27769,2.93487 0.046,1.20094 0.0453,1.8488 -0.003,3.10734 -0.0339,0.87453 -0.0826,1.73207 -0.10822,1.90564 -0.0257,0.17357 -0.0658,0.51223 -0.0892,0.75256 -0.0234,0.24033 -0.0669,0.51344 -0.0968,0.6069 -0.0298,0.0935 -0.0978,0.54136 -0.15106,0.99533 -0.39071,3.33162 -0.81716,5.06308 -2.04782,8.31457 l -0.3905,1.03174 h -7.40317 c -5.90361,0 -7.39808,-0.0123 -7.378,-0.0607 z"
     id="path5039"
     inkscape:connector-curvature="0"
     transform="scale(0.75000001)" />
  <path
     style="fill:#ff0000;stroke:#ff0000;stroke-width:0.01213806"
     d="m 351.56589,328.6063 c 0.01,-0.0297 1.02822,-0.2036 1.72576,-0.29469 0.27655,-0.0361 0.27817,-0.0362 0.22847,-0.006 -0.0478,0.0292 -0.0498,0.0454 -0.007,0.0615 0.0176,0.007 0.0298,0.0144 0.0271,0.0171 -0.008,0.008 -0.27228,0.04 -0.60531,0.0733 -0.38859,0.0388 -0.75717,0.0823 -1.08588,0.12822 -0.29298,0.0409 -0.2894,0.0406 -0.28269,0.0205 z"
     id="path5041"
     inkscape:connector-curvature="0"
     transform="scale(0.75000001)" />
  <path
     style="fill:#ff0000;stroke:#ff0000;stroke-width:0.00606903"
     d="m 351.15197,328.68252 c 0,-0.003 0.002,-0.007 0.005,-0.009 0.006,-0.004 0.39507,-0.0828 0.40693,-0.0828 0.007,0 0.007,0.002 0.001,0.009 -0.004,0.005 -0.006,0.0129 -0.004,0.0176 0.002,0.006 -0.004,0.01 -0.0251,0.0125 -0.0156,0.002 -0.10393,0.0161 -0.19625,0.031 -0.18138,0.0292 -0.18719,0.0298 -0.18719,0.0213 z"
     id="path5043"
     inkscape:connector-curvature="0"
     transform="scale(0.75000001)" />
  <path
     style="fill:#ff0000;stroke:#ff0000;stroke-width:0.00606903"
     d="m 351.13377,328.68823 c 0,-0.003 0.003,-0.006 0.006,-0.006 0.003,0 0.007,0.003 0.009,0.006 0.002,0.003 -5.1e-4,0.006 -0.006,0.006 -0.005,0 -0.009,-0.003 -0.009,-0.006 z"
     id="path5045"
     inkscape:connector-curvature="0"
     transform="scale(0.75000001)" />
  <path
     style="fill:#ff0000;stroke:#ff0000;stroke-width:0.00606903"
     d="m 351.0928,328.69278 c 0.003,-0.009 0.0198,-0.0131 0.0336,-0.008 0.009,0.003 0.009,0.005 0.001,0.01 -0.0134,0.008 -0.0377,0.007 -0.0347,-0.002 z"
     id="path5047"
     inkscape:connector-curvature="0"
     transform="scale(0.75000001)" />
  <path
     style="fill:#ff0000;stroke:#ff0000;stroke-width:0.00390625"
     d="m 350.95586,328.71954 c 8.6e-4,-0.003 0.0278,-0.0104 0.0599,-0.0174 0.0321,-0.007 0.062,-0.0136 0.0664,-0.0147 0.007,-0.002 0.008,-3.4e-4 0.008,0.007 -5.8e-4,0.008 -0.005,0.009 -0.0589,0.0192 -0.0663,0.0122 -0.0772,0.0131 -0.0749,0.006 z"
     id="path5049"
     inkscape:connector-curvature="0"
     transform="scale(0.75000001)" />
  <path
     style="fill:#ff0000;stroke:#ff0000;stroke-width:0.00390625"
     d="m 350.93467,328.7294 c 0.003,-10e-4 0.006,-9.9e-4 0.007,3.1e-4 0.001,10e-4 -10e-4,0.002 -0.005,0.002 -0.005,-1.8e-4 -0.005,-0.001 -0.002,-0.002 z"
     id="path5051"
     inkscape:connector-curvature="0"
     transform="scale(0.75000001)" />
  <path
     style="fill:#ff0000;stroke:#ff0000;stroke-width:0.00390625"
     d="m 350.90096,328.73189 c 9.5e-4,-0.003 0.0113,-0.007 0.023,-0.0102 0.0274,-0.006 0.031,-0.006 0.031,4e-5 0,0.003 -0.007,0.006 -0.0176,0.008 -0.01,10e-4 -0.0222,0.004 -0.0279,0.005 -0.008,0.002 -0.01,10e-4 -0.009,-0.003 z"
     id="path5053"
     inkscape:connector-curvature="0"
     transform="scale(0.75000001)" />
  <path
     style="fill:#ff0000;stroke:#ff0000;stroke-width:0.00390625"
     d="m 350.87681,328.73643 c 0,-0.004 0.0161,-0.009 0.0188,-0.006 8.4e-4,8.5e-4 3.8e-4,0.003 -10e-4,0.006 -0.003,0.005 -0.0177,0.006 -0.0177,7.1e-4 z"
     id="path5055"
     inkscape:connector-curvature="0"
     transform="scale(0.75000001)" />
  <path
     style="fill:#ff0000;stroke:#ff0000;stroke-width:0.00390625"
     d="m 350.85264,328.74503 c 0.003,-10e-4 0.006,-9.9e-4 0.007,3.1e-4 10e-4,10e-4 -0.001,0.002 -0.005,0.002 -0.005,-1.9e-4 -0.005,-0.001 -0.002,-0.002 z"
     id="path5057"
     inkscape:connector-curvature="0"
     transform="scale(0.75000001)" />
  <path
     style="fill:#ff0000;stroke:#ff0000;stroke-width:0.01104854"
     d="m 374.78252,335.2413 c -0.009,-0.0106 -0.0816,-0.11131 -0.16164,-0.22373 -0.41502,-0.58319 -0.86044,-1.11404 -1.48789,-1.77329 -0.20376,-0.21408 -0.34659,-0.37488 -0.39329,-0.44275 -0.0278,-0.0404 -0.0299,-0.0485 -0.0158,-0.0602 0.009,-0.007 0.0163,-0.0254 0.0163,-0.0398 0,-0.0144 0.005,-0.0263 0.01,-0.0263 0.01,0 0.29465,0.29452 0.47036,0.48613 0.35502,0.38717 0.79243,0.93141 1.1455,1.42526 0.13605,0.1903 0.45125,0.65708 0.45125,0.66825 0,0.0123 -0.0195,0.005 -0.0349,-0.0136 z"
     id="path5059"
     inkscape:connector-curvature="0"
     transform="scale(0.75000001)" />
  <path
     style="fill:#ff0000;stroke:#ff0000;stroke-width:0.01104854"
     d="m 371.88788,332.01306 c -0.0629,-0.0417 -0.21629,-0.15979 -0.34087,-0.26235 -0.48959,-0.40306 -0.7984,-0.63216 -1.28715,-0.95493 -0.39475,-0.26069 -0.3776,-0.24864 -0.36791,-0.25857 0.0145,-0.0149 0.38453,0.19713 0.73803,0.42284 0.33934,0.21665 0.74154,0.50444 1.04409,0.74706 0.10174,0.0816 0.44759,0.37187 0.44737,0.37549 -5e-5,8.7e-4 -0.0269,0.003 -0.0596,0.004 -0.0567,0.002 -0.0649,-10e-4 -0.17393,-0.0735 z"
     id="path5061"
     inkscape:connector-curvature="0"
     transform="scale(0.75000001)" />
  <path
     style="fill:#ff0000;stroke:#ff0000;stroke-width:0.0078125"
     d="m 369.81584,330.51028 c -0.0606,-0.0385 -0.0721,-0.0482 -0.0653,-0.055 0.003,-0.003 0.0367,0.0118 0.0759,0.032 0.0579,0.0299 0.0695,0.0388 0.0622,0.0476 -0.012,0.0144 -0.0109,0.0148 -0.0728,-0.0245 z"
     id="path5063"
     inkscape:connector-curvature="0"
     transform="scale(0.75000001)" />
</svg>
