<?xml version="1.0" encoding="UTF-8" standalone="no"?>
<svg
   xmlns:dc="http://purl.org/dc/elements/1.1/"
   xmlns:cc="http://creativecommons.org/ns#"
   xmlns:rdf="http://www.w3.org/1999/02/22-rdf-syntax-ns#"
   xmlns:svg="http://www.w3.org/2000/svg"
   xmlns="http://www.w3.org/2000/svg"
   xmlns:sodipodi="http://sodipodi.sourceforge.net/DTD/sodipodi-0.dtd"
   xmlns:inkscape="http://www.inkscape.org/namespaces/inkscape"
   version="1.0"
   width="463.000000pt"
   height="500.000000pt"
   viewBox="0 0 463.000000 500.000000"
   preserveAspectRatio="xMidYMid meet"
   id="svg5091"
   sodipodi:docname="d20icon.svg"
   inkscape:version="0.92.4 (5da689c313, 2019-01-14)">
  <defs
     id="defs5095" />
  <sodipodi:namedview
     pagecolor="#ffffff"
     bordercolor="#666666"
     borderopacity="1"
     objecttolerance="10"
     gridtolerance="10"
     guidetolerance="10"
     inkscape:pageopacity="0"
     inkscape:pageshadow="2"
     inkscape:window-width="1920"
     inkscape:window-height="1027"
     id="namedview5093"
     showgrid="false"
     inkscape:zoom="4.0050528"
     inkscape:cx="308.66667"
     inkscape:cy="333.33333"
     inkscape:window-x="1912"
     inkscape:window-y="-8"
     inkscape:window-maximized="1"
     inkscape:current-layer="svg5091" />
  <metadata
     id="metadata5081">
Created by potrace 1.15, written by Peter Selinger 2001-2017
<rdf:RDF>
  <cc:Work
     rdf:about="">
    <dc:format>image/svg+xml</dc:format>
    <dc:type
       rdf:resource="http://purl.org/dc/dcmitype/StillImage" />
    <dc:title></dc:title>
  </cc:Work>
</rdf:RDF>
</metadata>
  <g
     transform="translate(0.000000,500.000000) scale(0.100000,-0.100000)"
     fill="#000000"
     stroke="none"
     id="g5089">
    <path
       d="M2312 4899 c-12 -4 -28 -13 -35 -19 -32 -27 -124 -82 -142 -86 -11 -2 -21 -8 -23 -14 -2 -5 -8 -10 -13 -10 -5 0 -35 -17 -66 -37 -32 -21 -65 -38 -73 -40 -8 -1 -16 -7 -18 -12 -2 -6 -9 -11 -16 -11 -8 0 -24 -8 -37 -18 -13 -10 -44 -30 -69 -43 -25 -13 -46 -27 -48 -31 -2 -5 -9 -8 -15 -8 -7 0 -32 -14 -56 -30 -24 -16 -61 -37 -82 -47 -22 -9 -39 -20 -39 -25 0 -4 -6 -8 -13 -8 -7 0 -35 -15 -62 -33 -28 -18 -75 -46 -105 -61 -30 -16 -73 -41 -94 -57 -22 -16 -43 -29 -48 -29 -4 0 -42 -21 -85 -46 -43 -26 -118 -70 -168 -99 -49 -28 -141 -82 -204 -118 -62 -37 -115 -67 -118 -67 -2 0 -28 -16 -58 -35 -30 -19 -78 -46 -106 -61 -29 -14 -75 -41 -103 -59 -28 -17 -86 -52 -129 -76 l-78 -43 7 -1226 c4 -782 10 -1230 17 -1237 5 -7 15 -13 23 -13 12 0 63 -30 136 -81 15 -11 32 -19 38 -19 6 0 30 -13 53 -28 23 -16 78 -48 122 -72 44 -23 82 -45 85 -50 3 -4 46 -28 95 -55 50 -26 104 -58 121 -71 17 -13 38 -24 47 -24 8 0 22 -6 29 -13 13 -13 83 -56 150 -92 62 -34 180 -102 243 -140 57 -35 137 -81 260 -150 29 -16 72 -41 95 -55 23 -14 66 -38 96 -55 118 -66 192 -110 251 -147 34 -22 68 -41 75 -42 14 -2 98 -54 133 -81 48 -37 101 -23 201 52 17 13 36 23 43 23 6 0 24 8 39 18 105 70 124 82 134 82 6 0 34 15 62 34 28 18 83 50 121 71 39 20 77 43 85 49 8 7 51 32 95 55 44 24 82 46 85 51 3 4 30 20 60 36 30 15 85 47 122 71 37 24 73 43 80 43 8 0 23 7 33 15 52 39 129 87 146 90 10 2 24 9 31 15 17 15 74 49 123 75 22 11 59 33 83 48 23 15 68 41 100 58 68 35 92 50 110 66 7 7 24 16 38 19 13 3 24 9 24 13 0 4 12 12 28 19 15 6 41 21 57 32 17 11 41 25 55 32 14 7 31 18 38 25 7 7 20 13 28 13 9 0 22 6 29 13 8 6 39 28 69 47 l56 35 0 1238 c0 823 -3 1236 -10 1232 -5 -3 -10 -3 -10 2 0 4 -24 21 -53 37 -28 16 -59 35 -69 43 -9 8 -23 15 -31 17 -8 1 -32 13 -53 28 -49 32 -117 73 -124 73 -10 1 -75 38 -80 45 -3 4 -36 25 -75 45 -38 21 -93 53 -121 71 -28 18 -57 34 -64 36 -7 2 -50 27 -94 55 -45 29 -86 53 -93 53 -11 0 -30 11 -135 82 -15 10 -33 18 -39 18 -7 0 -26 11 -43 24 -17 13 -71 45 -121 71 -49 27 -92 51 -95 55 -9 12 -77 50 -89 50 -7 0 -17 5 -24 10 -24 21 -136 90 -146 90 -6 0 -29 13 -53 29 -24 16 -68 41 -98 57 -30 15 -68 38 -85 50 -16 12 -55 34 -85 50 -30 15 -84 46 -120 69 -73 47 -105 57 -138 44z m141 -566 c58 -87 163 -243 234 -348 309 -456 485 -719 490 -731 4 -12 -130 -14 -831 -14 -578 0 -836 3 -836 11 0 9 101 161 563 844 59 88 142 213 185 277 42 65 80 118 84 118 3 0 54 -71 111 -157z m-645 -130 c-131 -192 -486 -717 -546 -808 -36 -55 -67 -102 -69 -104 -5 -6 -134 63 -190 101 -23 15 -51 32 -61 36 -30 11 -292 166 -292 172 0 3 55 38 123 76 67 39 282 163 477 276 549 318 605 349 608 339 2 -6 -21 -45 -50 -88z m1197 0 c60 -35 119 -69 130 -75 11 -7 40 -24 65 -38 59 -35 546 -316 717 -414 134 -77 134 -76 62 -113 -24 -13 -73 -41 -109 -62 -70 -41 -284 -166 -338 -197 l-32 -18 -18 24 c-25 35 -205 302 -430 635 -108 160 -204 301 -214 314 -10 13 -15 27 -12 32 6 10 30 -1 179 -88z m-2221 -1008 c141 -82 256 -154 256 -160 0 -5 -113 -242 -251 -525 -138 -283 -256 -526 -262 -540 -10 -21 -12 -12 -18 70 -9 126 -11 1295 -2 1304 9 9 -13 20 277 -149z m3399 -199 c7 -356 -1 -1046 -12 -1046 -6 1 -519 1056 -523 1079 -2 8 96 71 257 167 143 84 263 153 266 153 3 1 9 -158 12 -353z m-973 -43 c0 -5 -18 -37 -39 -73 -40 -65 -103 -176 -148 -260 -14 -24 -33 -56 -42 -70 -10 -14 -35 -56 -56 -95 -20 -38 -53 -93 -71 -122 -19 -28 -34 -54 -34 -58 0 -3 -45 -83 -100 -176 -55 -93 -100 -173 -100 -177 0 -4 -15 -30 -34 -57 -18 -28 -51 -84 -74 -125 -47 -88 -135 -237 -154 -264 -8 -11 -19 -16 -25 -13 -10 6 -63 98 -123 213 -9 16 -25 43 -36 60 -12 16 -43 70 -69 119 -26 50 -51 92 -55 95 -4 3 -24 37 -45 75 -20 39 -67 122 -104 185 -65 111 -120 205 -170 293 -13 23 -44 78 -71 122 -26 44 -73 127 -105 185 -32 58 -64 112 -72 121 -7 9 -10 19 -6 22 9 10 1733 9 1733 0z m309 -305 c38 -79 113 -235 168 -348 365 -745 415 -852 406 -861 -4 -4 -233 -24 -508 -44 -820 -59 -965 -68 -973 -61 -4 4 3 24 14 44 25 45 289 502 447 777 242 420 369 635 373 635 3 0 36 -64 73 -142z m-2181 -19 c46 -79 94 -162 106 -184 46 -80 215 -373 286 -495 40 -69 92 -159 115 -200 23 -41 85 -149 138 -240 55 -95 92 -169 87 -174 -10 -10 -1470 91 -1482 103 -4 3 72 168 168 366 97 198 199 410 229 470 188 391 247 506 257 503 6 -2 49 -69 96 -149z m202 -1543 c272 -20 531 -38 576 -41 l81 -7 7 -158 c8 -177 -2 -460 -16 -460 -9 0 -163 87 -295 166 -40 24 -75 44 -78 44 -3 0 -72 39 -153 87 -186 109 -443 258 -502 291 -146 80 -183 106 -164 113 11 4 26 6 34 3 8 -2 238 -19 510 -38z m2144 35 c17 -7 16 -8 -7 -24 -14 -9 -41 -25 -60 -36 -19 -11 -147 -84 -283 -164 -137 -79 -382 -221 -544 -315 l-295 -171 -8 37 c-9 40 -5 577 4 586 3 3 140 15 305 26 453 31 849 61 853 66 5 5 12 4 35 -5z"
       id="path5083" />
    <path
       d="M2056 2759 c-34 -27 -56 -75 -56 -124 0 -35 0 -35 44 -35 43 0 44 0 50 40 9 58 49 77 86 40 41 -41 20 -108 -96 -312 -67 -118 -84 -155 -84 -188 l0 -40 146 0 145 0 -3 43 -3 42 -82 3 c-46 2 -83 5 -83 7 0 3 36 74 79 158 104 201 116 278 52 350 -26 28 -35 32 -97 35 -60 3 -73 1 -98 -19z"
       id="path5085" />
    <path
       d="M2441 2767 c-13 -6 -34 -25 -45 -40 -20 -27 -21 -43 -24 -260 -2 -216 -1 -234 17 -264 30 -48 64 -66 126 -66 63 0 96 18 122 66 16 28 18 61 18 257 0 249 -5 274 -65 305 -35 18 -116 19 -149 2z m105 -81 c17 -13 19 -30 22 -208 2 -116 -1 -205 -7 -221 -13 -35 -55 -46 -81 -22 -19 17 -20 32 -20 226 0 203 0 208 22 223 28 20 39 20 64 2z"
       id="path5087" />
  </g>
  <path
     style="fill:#ff0000;stroke:#ff0000;stroke-width:2.82485867"
     d="m 302.59322,661.20636 c -2.19957,-2.16009 -120.74128,-71.21147 -175,-101.93873 -16.0809,-9.10678 -85.392754,-49.43207 -91.807909,-53.41339 -3.673046,-2.27955 -4.336996,-24.37966 -4.986062,-165.96514 L 30.050475,176.55367 95.771,138.60767 c 63.73747,-36.80102 82.02218,-47.447283 171.3456,-99.765862 23.21009,-13.594633 43.63219,-24.717514 45.38247,-24.717514 1.75025,0 32.04892,16.74043 67.33031,37.200955 35.28141,20.460525 80.58404,46.636952 100.67251,58.169841 67.3226,38.65019 104.69082,60.55631 108.24952,63.45839 2.75139,2.24371 3.53108,39.15776 3.53108,167.17564 v 164.29611 l -51.16707,29.56706 c -57.31087,33.11726 -60.43228,34.92593 -99.96288,57.92212 -61.04972,35.51457 -96.47895,56.01336 -105.9322,61.29065 -5.43785,3.0357 -11.09463,6.67084 -12.57062,8.0781 -3.50667,3.34337 -16.62496,3.29314 -20.0565,-0.0768 z M 424.20339,559.9509 c 62.1498,-36.08531 74.8015,-45.43274 59.32203,-43.82875 -3.10734,0.32197 -34.25141,2.57147 -69.20904,4.99887 -34.95762,2.42743 -68.32627,5.13587 -74.15254,6.01881 l -10.59322,1.60537 v 40.24133 c 0,22.13274 0.80297,41.04429 1.78435,42.0257 0.98141,0.98139 7.01955,-1.24904 13.41808,-4.95652 6.39856,-3.70749 42.1422,-24.45466 79.43034,-46.10481 z m -130.31154,43.86266 c 3.29618,-12.29969 1.94864,-68.62864 -1.75061,-73.1772 -2.79062,-3.43136 -18.04394,-5.33557 -72.74011,-9.08091 -83.56987,-5.72243 -89.90714,-5.81288 -85.31166,-1.2174 4.72964,4.72963 150.96998,89.32627 154.89745,89.60458 1.76088,0.12486 3.9681,-2.63331 4.90493,-6.12907 z M 275.89831,487.19424 c 0,-7.42345 -106.19144,-189.17164 -110.52879,-189.17164 -3.34719,0 -87.048774,168.48025 -87.160952,175.4435 -0.03268,2.02935 16.55963,4.33475 47.266012,6.56729 26.02401,1.89209 60.66384,4.43531 76.9774,5.65158 36.93008,2.75334 73.44633,3.50373 73.44633,1.50927 z m 186.44067,-4.36596 c 44.27966,-3.25486 81.50486,-6.86743 82.72263,-8.02794 2.08672,-1.98856 -82.53003,-181.01921 -85.54749,-180.99986 -1.19887,0.008 -83.34988,140.61805 -106.03011,181.48201 l -7.44726,13.41807 17.89689,0.0226 c 9.84328,0.0113 54.12568,-2.64025 98.40534,-5.89511 z M 343.79147,421.61017 c 15.87452,-27.57768 40.75031,-70.61896 55.27952,-95.64726 14.52921,-25.02833 27.21715,-47.59188 28.19545,-50.14125 1.63116,-4.25073 -7.85362,-4.63522 -114.34274,-4.63522 -63.86679,0 -116.12144,1.08878 -116.12144,2.4195 0,2.46093 2.50818,6.91166 59.92574,106.33756 17.94464,31.07345 35.5105,61.58192 39.03525,67.79661 11.38404,20.07187 14.11813,24.0113 16.66452,24.0113 1.37554,0 15.48918,-22.56356 31.3637,-50.14124 z M 558.38418,313.55932 c 0,-56.53191 -1.04878,-93.22034 -2.66483,-93.22034 -3.64059,0 -63.9702,36.15708 -67.57305,40.49827 -2.07907,2.50511 6.92138,23.46619 32.08051,74.71221 19.2337,39.17661 35.68743,71.2302 36.56387,71.2302 0.87641,0 1.5935,-41.94915 1.5935,-93.22034 z m -453.28919,20.48023 c 18.44063,-38.45339 33.86163,-70.67416 34.26886,-71.6017 0.85013,-1.93629 -65.762737,-42.09887 -69.824347,-42.09887 -1.636099,0 -2.680746,35.7762 -2.680746,91.80791 0,50.49435 1.059254,91.80791 2.353896,91.80791 1.294644,0 17.441692,-31.46186 35.882337,-69.91525 z M 422.79096,232.01193 c 0,-1.99369 -87.44927,-133.782492 -105.1998,-158.539393 -3.02252,-4.215526 -5.86582,-5.814065 -7.37884,-4.148444 -2.47043,2.719585 -105.05608,154.985287 -108.8799,161.608107 -1.61646,2.79971 21.10691,3.53108 109.7099,3.53108 61.46175,0 111.74864,-1.10311 111.74864,-2.45135 z M 204.38814,162.42466 c 23.79387,-35.54502 43.26158,-65.701861 43.26158,-67.015202 0,-3.161904 -1.06091,-2.590673 -86.8911,46.785252 -40.79857,23.47038 -73.828366,43.726 -73.399538,45.01248 1.123155,3.36946 67.970318,41.54687 71.125108,40.62061 1.4533,-0.42671 22.11008,-29.85812 45.90395,-65.40314 z m 299.05649,45.97223 c 33.04195,-19.20002 34.84201,-20.69557 30.20712,-25.0968 -7.16743,-6.80611 -153.56847,-90.43896 -156.56613,-89.439743 -2.42893,0.809642 86.80952,134.953213 89.77706,134.953213 0.79543,0 17.25729,-9.1875 36.58195,-20.41667 z"
     id="path5097"
     inkscape:connector-curvature="0"
     transform="scale(0.75)" />
  <path
     style="fill:#ff0000;stroke:#ff0000;stroke-width:0.2496846"
     d="m 329.6152,381.12105 c -3.80909,-0.78611 -7.28431,-3.10074 -9.81633,-6.53805 -2.35187,-3.19275 -2.90677,-4.9128 -3.28723,-10.1896 -0.47259,-6.55473 -0.11661,-43.54276 0.49947,-51.89605 0.47162,-6.39466 1.14631,-8.08744 4.60517,-11.55428 3.68928,-3.69779 6.29545,-4.61869 13.11746,-4.63511 5.83868,-0.014 8.9839,0.70529 12.33359,2.82081 5.12978,3.23975 6.1398,6.78992 6.67668,23.46813 0.31757,9.86508 0.12699,37.0478 -0.29469,42.03271 -0.50487,5.96844 -1.81566,9.18237 -5.12715,12.57126 -2.06356,2.11179 -4.32559,3.31455 -7.39821,3.93376 -2.47122,0.498 -8.86708,0.49032 -11.30876,-0.0136 z m 8.25704,-11.31627 c 1.29489,-0.57214 2.78798,-2.08793 3.40028,-3.45199 0.26232,-0.58438 0.59363,-1.93268 0.73624,-2.99622 0.39943,-2.9786 0.55872,-28.62974 0.23817,-38.35256 -0.48729,-14.78037 -0.73838,-15.73485 -4.64521,-17.65817 -2.00371,-0.98643 -3.01255,-0.89079 -5.36483,0.50856 -3.01269,1.79222 -3.59775,2.80671 -3.98722,6.91383 -0.33853,3.5699 -0.34101,42.68129 -0.003,46.84418 0.29056,3.5783 0.6747,5.08746 1.6056,6.30793 0.71882,0.94242 2.48269,2.07612 3.71591,2.38833 1.07822,0.27298 3.0748,0.0392 4.30403,-0.50389 z"
     id="path5099"
     inkscape:connector-curvature="0"
     transform="scale(0.75)" />
  <path
     style="fill:#ff0000;stroke:#ff0000;stroke-width:0.2496846"
     d="m 266.87098,377.2154 c 0.0859,-3.69119 0.16008,-4.24892 0.82194,-6.17969 1.07908,-3.1479 4.43221,-9.69552 10.4851,-20.47414 8.1707,-14.54988 12.46059,-23.37812 14.25612,-29.33794 0.5552,-1.84282 0.68152,-2.76382 0.70206,-5.11853 0.0229,-2.62161 -0.0332,-2.99562 -0.64438,-4.29966 -1.31508,-2.80584 -4.37392,-5.01567 -6.94595,-5.01805 -1.65595,-0.002 -2.5929,0.44632 -3.85399,1.84221 -1.30675,1.44642 -2.01928,3.19932 -2.64223,6.50018 -0.29269,1.55094 -0.69299,3.13088 -0.88954,3.51097 -0.54446,1.05286 -1.66259,1.25967 -6.30708,1.16656 -5.16064,-0.10345 -5.0335,-0.004 -5.0335,-3.95198 0,-7.2114 2.71504,-13.28556 7.67428,-17.16907 2.9702,-2.32592 5.15271,-2.72309 12.65019,-2.30203 7.5429,0.42361 9.08771,0.88974 11.8438,3.57377 5.62149,5.47451 7.39573,11.94697 5.54264,20.21966 -1.52558,6.81055 -4.17448,12.94776 -14.07004,32.59873 -5.63368,11.18757 -7.87889,15.87753 -7.66444,16.01007 0.53053,0.32788 8.00153,0.83408 16.90893,1.14565 l 4.79585,0.16775 0.1287,1.02972 c 0.17446,1.39572 0.64152,8.12548 0.64152,9.24345 v 0.89975 h -19.2472 -19.2472 z"
     id="path5101"
     inkscape:connector-curvature="0"
     transform="scale(0.75)" />
</svg>
