<?xml version="1.0" encoding="UTF-8" standalone="no"?>
<svg
   xmlns:dc="http://purl.org/dc/elements/1.1/"
   xmlns:cc="http://creativecommons.org/ns#"
   xmlns:rdf="http://www.w3.org/1999/02/22-rdf-syntax-ns#"
   xmlns:svg="http://www.w3.org/2000/svg"
   xmlns="http://www.w3.org/2000/svg"
   xmlns:sodipodi="http://sodipodi.sourceforge.net/DTD/sodipodi-0.dtd"
   xmlns:inkscape="http://www.inkscape.org/namespaces/inkscape"
   version="1.0"
   width="463.000000pt"
   height="500.000000pt"
   viewBox="0 0 463.000000 500.000000"
   preserveAspectRatio="xMidYMid meet"
   id="svg30"
   sodipodi:docname="d4icon (1).svg"
   inkscape:version="0.92.4 (5da689c313, 2019-01-14)">
  <metadata
     id="metadata36">
    <rdf:RDF>
      <cc:Work
         rdf:about="">
        <dc:format>image/svg+xml</dc:format>
        <dc:type
           rdf:resource="http://purl.org/dc/dcmitype/StillImage" />
        <dc:title></dc:title>
      </cc:Work>
    </rdf:RDF>
  </metadata>
  <defs
     id="defs34" />
  <sodipodi:namedview
     pagecolor="#ffffff"
     bordercolor="#666666"
     borderopacity="1"
     objecttolerance="10"
     gridtolerance="10"
     guidetolerance="10"
     inkscape:pageopacity="0"
     inkscape:pageshadow="2"
     inkscape:window-width="1920"
     inkscape:window-height="1027"
     id="namedview32"
     showgrid="false"
     inkscape:zoom="0.91216775"
     inkscape:cx="266.12468"
     inkscape:cy="310.58979"
     inkscape:window-x="1912"
     inkscape:window-y="-8"
     inkscape:window-maximized="1"
     inkscape:current-layer="svg30" />
  <g
     transform="translate(0.000000,500.000000) scale(0.100000,-0.100000)"
     fill="#000000"
     stroke="none"
     id="g28">
    <path
       d="M2315 4891 c-6 -6 -41 -27 -80 -49 -38 -21 -158 -90 -265 -152 -107 -62 -229 -132 -270 -155 -98 -54 -495 -285 -588 -341 -40 -24 -75 -44 -77 -44 -3 0 -112 -62 -243 -139 -130 -76 -293 -170 -362 -209 -69 -39 -144 -83 -167 -96 l-42 -25 5 -1218 c3 -670 7 -1223 9 -1229 3 -10 96 -66 440 -264 88 -50 201 -116 250 -145 159 -93 528 -307 595 -345 36 -20 92 -52 125 -72 91 -54 232 -135 420 -243 94 -54 194 -112 224 -130 l53 -32 82 47 c79 46 186 107 511 295 88 51 176 102 195 112 19 11 181 105 360 208 179 103 456 263 615 355 160 93 304 176 320 187 l30 18 3 1228 2 1227 -42 26 c-39 23 -222 129 -678 392 -91 52 -205 118 -255 147 -49 28 -148 86 -220 127 -71 41 -191 110 -265 153 -74 43 -178 103 -230 133 -52 30 -131 76 -175 102 -44 25 -116 67 -161 93 -83 48 -103 54 -119 38z m142 -563 c116 -173 401 -596 602 -892 66 -99 121 -183 121 -188 0 -9 -1663 -11 -1673 -2 -3 3 54 94 128 202 216 320 510 757 608 904 51 76 95 138 99 138 4 0 56 -73 115 -162z m-727 -240 c-144 -212 -307 -455 -447 -662 -41 -61 -78 -117 -83 -125 -8 -14 -16 -12 -62 13 -130 70 -488 281 -488 287 0 4 35 27 78 51 174 100 578 334 867 502 193 112 270 154 274 150 2 -2 -60 -100 -139 -216z m1285 110 c33 -20 179 -104 325 -188 146 -84 297 -172 335 -195 39 -24 93 -54 120 -69 97 -50 228 -131 232 -142 2 -7 -11 -21 -29 -31 -256 -151 -488 -283 -497 -283 -5 0 -68 89 -141 198 -74 108 -219 324 -324 479 -105 156 -200 297 -210 314 l-20 32 75 -40 c41 -22 101 -56 134 -75z m-2288 -970 c114 -67 232 -135 261 -151 28 -15 52 -34 52 -41 0 -7 -108 -235 -241 -507 -133 -271 -251 -514 -262 -539 l-21 -45 -7 70 c-10 109 -10 1335 0 1335 5 0 103 -55 218 -122z m3458 -233 c8 -373 -2 -1045 -15 -1045 -4 0 -15 17 -23 38 -8 20 -123 258 -255 529 -132 270 -243 500 -246 510 -5 15 33 40 217 146 122 70 240 138 262 152 22 13 43 25 46 25 4 0 10 -160 14 -355z m-975 -42 c0 -5 -18 -37 -39 -73 -40 -65 -103 -176 -148 -260 -14 -24 -33 -56 -42 -70 -10 -14 -35 -56 -56 -95 -20 -38 -53 -93 -71 -122 -19 -28 -34 -54 -34 -58 0 -4 -38 -70 -84 -148 -46 -78 -97 -167 -113 -197 -17 -30 -45 -81 -64 -112 -19 -31 -68 -116 -109 -188 -88 -154 -103 -176 -117 -167 -10 6 -63 98 -123 213 -9 16 -25 43 -37 60 -11 16 -33 54 -49 84 -15 30 -47 85 -71 122 -24 37 -43 70 -43 73 0 3 -26 50 -57 103 -31 53 -82 142 -113 197 -31 55 -70 123 -87 150 -33 55 -81 139 -180 315 -36 63 -74 127 -84 142 -10 15 -19 30 -19 33 0 3 392 5 870 5 479 0 870 -3 870 -7z m-1827 -401 c75 -130 168 -291 206 -357 37 -66 101 -176 141 -245 40 -69 90 -154 110 -190 20 -36 83 -145 139 -243 57 -98 101 -181 97 -184 -6 -7 -163 3 -916 58 -311 23 -568 44 -572 48 -7 6 641 1351 651 1351 3 0 68 -107 144 -238z m2165 36 c443 -911 552 -1138 552 -1147 0 -6 -9 -11 -19 -11 -10 0 -205 -14 -432 -30 -573 -42 -968 -70 -1006 -70 -18 0 -33 5 -33 11 0 10 122 226 351 619 39 69 98 170 129 225 31 55 81 143 112 195 30 52 92 160 138 240 82 143 99 170 106 170 2 0 48 -91 102 -202z m-2068 -1498 c234 -16 490 -35 569 -40 80 -6 146 -12 148 -13 8 -8 13 -427 6 -519 l-8 -108 -185 106 c-102 58 -255 147 -340 197 -85 49 -213 123 -285 164 -392 225 -408 235 -393 245 7 4 24 6 38 3 14 -2 216 -18 450 -35z m2209 31 c17 -11 31 -2 -344 -218 -252 -145 -316 -182 -550 -318 -325 -189 -299 -176 -307 -152 -9 34 -9 595 1 601 5 3 73 10 152 16 820 58 1004 72 1008 76 7 7 25 4 40 -5z"
       id="path24" />
    <path
       d="M2251 2623 c-16 -54 -48 -160 -71 -236 -25 -84 -40 -153 -38 -175 l3 -37 97 -3 97 -3 3 -47 3 -47 43 -3 42 -3 0 50 c0 44 3 50 23 53 18 2 23 10 25 45 3 37 0 42 -20 45 -22 3 -23 8 -26 91 l-3 88 -42 -3 -42 -3 -3 -88 -3 -88 -47 3 c-36 2 -46 7 -44 18 2 8 30 108 63 222 32 114 59 210 59 213 0 3 -20 5 -45 5 l-44 0 -30 -97z"
       id="path26" />
  </g>
  <path
     style="fill:#ff0000;stroke-width:0.77519381"
     d="M 288.0463,651.62384 C 233.12191,619.78542 221.57743,613.10408 200.44961,600.92746 188.29845,593.92437 158.99612,576.9459 135.33333,563.19752 111.67054,549.44915 81.321705,531.82616 67.891473,524.03533 54.46124,516.2445 40.811557,508.16612 37.558845,506.08336 l -5.914024,-3.78682 -0.495957,-61.41959 C 30.876088,407.09618 30.572282,333.62533 30.47374,277.6084 L 30.294574,175.75943 48.511628,165.29199 c 10.01938,-5.75709 31.303304,-18.05435 47.29761,-27.32723 15.994302,-9.27288 34.308262,-19.79923 40.697672,-23.39188 6.38942,-3.59264 19.8148,-11.35637 29.83418,-17.252717 10.01938,-5.896357 38.27519,-22.233592 62.79069,-36.304977 24.51551,-14.071385 51.52931,-29.577005 60.03066,-34.456933 8.50136,-4.879929 16.69281,-9.712336 18.20321,-10.738681 1.5104,-1.026346 3.37283,-1.866084 4.13873,-1.866084 2.1464,0 8.43704,3.394447 36.37867,19.630033 14.20231,8.252307 54.42703,31.51587 89.38827,51.696807 34.96124,20.180932 84.49612,48.796042 110.07752,63.589122 l 46.51163,26.89651 0.17861,100.29531 c 0.0982,55.16243 -0.0762,128.89622 -0.3876,163.85288 l -0.56621,63.55755 -13.95349,8.21629 c -14.02395,8.25779 -129.96745,75.2424 -215.89147,124.72804 -25.36822,14.61016 -47.17064,27.19362 -48.44982,27.96326 l -2.32579,1.39935 z m 6.07331,-75.54124 c 0.16544,-18.48403 0.0581,-36.84347 -0.23836,-40.79875 l -0.53916,-7.19142 -4.39198,-0.48438 c -2.41558,-0.26641 -21.65941,-1.69884 -42.76406,-3.18319 -21.10465,-1.48434 -55.02838,-3.96197 -75.38607,-5.50582 -20.35768,-1.54386 -37.53791,-2.60596 -38.17829,-2.36023 -3.39533,1.30291 -0.2199,3.45277 35.69488,24.16653 15.32821,8.8405 44.78808,25.84682 65.46638,37.7918 20.67829,11.94498 42.30497,24.43332 48.05928,27.75186 9.22172,5.31821 10.55217,5.8788 11.21949,4.72732 0.44764,-0.77241 0.88005,-15.04337 1.05789,-34.91372 z m 42.20761,33.71842 c 1.37197,-0.57844 16.79681,-9.34907 34.27743,-19.49028 17.48062,-10.14123 49.92248,-28.90481 72.09302,-41.69686 46.30312,-26.71614 50,-28.97017 50,-30.4855 0,-1.89526 -3.70414,-2.76634 -8.07187,-1.89823 -3.75833,0.74698 -16.11824,1.71462 -89.60254,7.01483 -68.13624,4.91448 -63.00685,4.32004 -63.66077,7.37754 -0.65227,3.0497 -0.81082,70.89196 -0.17801,76.16043 0.53492,4.45335 1.03808,4.74863 5.14274,3.01807 z M 451.6124,482.89287 c 49.24419,-3.42655 90.68694,-6.40544 92.09501,-6.61976 1.40806,-0.21431 2.73285,-0.83977 2.94395,-1.3899 0.44376,-1.15643 -5.89822,-14.6438 -39.03871,-83.02274 -39.47002,-81.4387 -47.31392,-97.28683 -48.15134,-97.28683 -1.36069,0 -4.51217,5.22238 -31.1085,51.55039 -14.19641,24.72868 -32.16744,55.94961 -39.9356,69.37985 -28.14856,48.66551 -40.68078,70.99495 -40.68078,72.48349 0,1.14482 4.01363,1.81738 8.91473,1.49383 2.9845,-0.19703 45.71706,-3.16177 94.96124,-6.58833 z m -174.4186,5.84747 c 0,-1.09536 -6.80902,-13.67709 -18.02896,-33.31398 -11.6982,-20.47395 -20.2169,-35.25531 -65.60705,-113.83922 -20.80762,-36.02422 -27.22829,-46.56771 -28.3795,-46.60248 -1.88746,-0.057 -88.262047,178.6396 -86.971043,179.9306 0.924984,0.92498 48.943663,4.73936 154.412913,12.26583 23.74204,1.69428 44.57364,2.423 44.57364,1.55925 z m 37.64237,-19.21594 c 2.06132,-2.58337 16.18582,-26.63307 34.23051,-58.28409 5.34758,-9.37984 13.51997,-23.57804 18.16087,-31.55154 4.6409,-7.97351 8.69464,-15.12467 9.00833,-15.89148 0.31368,-0.7668 3.67313,-6.62675 7.46545,-13.0221 12.54906,-21.16265 21.8673,-37.13694 24.87055,-42.63566 1.63005,-2.98449 6.79257,-12.00641 11.47226,-20.04869 5.79095,-9.95206 8.21872,-14.80146 7.60115,-15.18313 -2.44595,-1.51168 -231.85148,-1.61628 -231.84485,-0.10571 7.8e-4,0.2496 1.27497,2.54684 2.83082,5.10498 1.55586,2.55814 10.04031,17.2093 18.85432,32.55814 8.81402,15.34883 22.66082,39.4186 30.77064,53.48837 8.10984,14.06977 16.2721,28.37209 18.13835,31.78294 1.86626,3.41086 6.01886,10.62946 9.228,16.04135 12.87447,21.71147 19.56785,33.28182 25.0271,43.26255 7.0081,12.81234 9.77079,17.05269 11.11021,17.05269 0.56471,0 1.94903,-1.15588 3.07629,-2.56862 z M 96.399157,351.16279 C 109.37893,324.5155 124.35476,293.51056 129.67878,282.26291 l 9.68003,-20.45025 -1.81893,-1.77143 c -1.00042,-0.97428 -12.72681,-8.08228 -26.05863,-15.79556 -35.364105,-20.46027 -41.850543,-24.09063 -43.043283,-24.09063 -0.875829,0 -1.165916,4.06784 -1.584496,22.21914 -1.114516,48.32994 -0.09284,158.39919 1.520668,163.82737 0.535811,1.80258 0.710529,1.6401 2.500745,-2.32558 1.058577,-2.34496 12.5445,-26.06589 25.524273,-52.71318 z m 461.405323,30.10343 c 1.48403,-45.85123 0.51636,-157.40751 -1.39503,-160.82296 -0.39712,-0.70961 -4.56915,1.35646 -14.88372,7.37069 -7.88256,4.59617 -22.00635,12.81758 -31.3862,18.26979 -21.76751,12.65279 -24.68929,14.74773 -24.0608,17.2518 0.25945,1.03375 12.19089,26.01429 26.51431,55.51231 14.32341,29.49803 29.52228,60.95835 33.77525,69.91184 8.57286,18.04782 9.06729,18.89386 10.03318,17.16791 0.35306,-0.6309 0.98443,-11.72852 1.40301,-24.66138 z M 424.12188,233.95069 c 0.62907,-0.62933 -7.46359,-13.05927 -35.71831,-54.86166 C 377.3015,162.66371 358.84245,135.27132 347.38346,118.21705 335.92447,101.16279 323.42154,82.728084 319.59919,77.251039 l -6.94976,-9.958264 -1.75817,1.818729 c -1.97518,2.043207 -12.86378,18.076616 -67.56771,99.493146 -20.91229,31.12403 -39.13535,58.57386 -40.49568,60.99962 l -2.47333,4.41047 3.34211,0.33031 c 5.72118,0.56545 219.84873,0.18236 220.42523,-0.39436 z M 166.26421,217.82946 c 3.58174,-5.32946 21.55751,-32.01551 39.94615,-59.30233 38.1946,-56.67684 43.2929,-64.466967 42.92098,-65.582719 -0.41866,-1.255977 -9.16399,3.637473 -86.99953,48.680569 -66.67821,38.58638 -76.625652,44.56692 -75.592619,45.44727 0.774445,0.65998 19.088239,11.65965 32.515069,19.52926 24.02092,14.07892 37.5188,21.36685 39.14729,21.13685 1.00818,-0.1424 3.82789,-3.60779 8.06266,-9.9089 z m 316.00352,2.24867 c 24.65185,-13.8663 51.59526,-29.71922 53.56361,-31.51566 1.05316,-0.96119 1.69675,-2.1005 1.43018,-2.53182 -0.83108,-1.3447 -11.17961,-7.99671 -21.69563,-13.94587 -5.54263,-3.13561 -20.71705,-11.86609 -33.72093,-19.40107 -85.81177,-49.72284 -106.83239,-61.613594 -107.58711,-60.858873 -0.45861,0.458605 14.73698,23.318063 57.22223,86.082143 31.6395,46.74151 33.96131,50 35.62708,50 0.68324,0 7.50549,-3.52299 15.16057,-7.82885 z"
     id="path38"
     inkscape:connector-curvature="0"
     transform="scale(0.75)" />
  <path
     style="fill:#ff0000;stroke-width:0.77519381"
     d="m 317.69767,390.12372 -4.84496,-0.27522 v -2.95559 c 0,-1.62558 -0.22183,-4.57404 -0.49296,-6.55216 l -0.49297,-3.59656 -11.71633,-0.0119 c -6.44399,-0.007 -12.2396,-0.34374 -12.87913,-0.74935 -3.31759,-2.10412 -0.12251,-16.0922 14.03566,-61.44809 l 3.08527,-9.88372 h 5.39302 c 3.93565,0 5.39302,0.27506 5.39302,1.01784 0,0.55981 -3.48837,13.34022 -7.75193,28.40092 -4.26357,15.06069 -7.75194,27.99557 -7.75194,28.74418 0,1.70417 0.83095,2.01872 7.10896,2.69103 l 5.05355,0.54119 0.50789,-6.00833 c 0.27934,-3.30459 0.50789,-8.53467 0.50789,-11.6224 0,-6.42251 0.13224,-6.55512 6.53644,-6.55512 h 4.08406 l 0.44138,10.27131 c 0.24276,5.64923 0.66615,10.84264 0.94086,11.54092 0.27471,0.69828 1.52369,1.47445 2.7755,1.72481 2.16023,0.43204 2.27603,0.65597 2.27603,4.40151 0,4.64434 -1.02724,6.94517 -3.10078,6.94517 -2.23095,0 -3.10077,2.37772 -3.10077,8.47617 0,3.01252 -0.26163,5.4101 -0.5814,5.32795 -0.31977,-0.0822 -2.76163,-0.27322 -5.42636,-0.42459 z"
     id="path40"
     inkscape:connector-curvature="0"
     transform="scale(0.75)" />
  <path
     style="fill:#ff0000;stroke-width:0.0685181"
     d="m 304.31368,377.20889 c -3.22206,-0.10381 -8.64869,-0.27375 -12.05918,-0.37765 -3.41049,-0.1039 -6.20621,-0.19232 -6.21272,-0.1965 -0.007,-0.004 -0.10986,-1.1945 -0.22967,-2.64514 -0.23392,-2.83211 -0.2376,-3.50271 -0.0281,-5.11118 0.5198,-3.99016 2.01364,-10.39926 4.17879,-17.92849 0.35505,-1.23466 1.88186,-6.33755 3.39291,-11.33975 1.51106,-5.0022 3.62411,-12.02406 4.69567,-15.60413 1.07156,-3.58007 2.35426,-7.82733 2.85046,-9.43837 0.90212,-2.92898 0.90218,-2.92914 1.09018,-2.92914 0.17296,0 0.18354,0.0151 0.13216,0.18842 -0.0307,0.10363 -0.82746,2.67049 -1.77054,5.70413 -6.92966,22.29091 -10.68664,35.35936 -12.64876,43.99799 -1.94295,8.55423 -2.16239,12.84078 -0.72859,14.23223 0.31474,0.30546 0.7046,0.42264 1.85227,0.55674 2.46234,0.28772 6.2333,0.39781 15.38182,0.44904 4.18276,0.0234 7.61153,0.0491 7.6195,0.0571 0.008,0.008 0.0353,0.14438 0.0606,0.30312 l 0.0462,0.28863 -0.88237,-0.009 c -0.4853,-0.005 -3.51859,-0.0941 -6.74066,-0.19788 z"
     id="path42"
     inkscape:connector-curvature="0"
     transform="scale(0.75)" />
  <path
     style="fill:#ff0000;stroke-width:0.0685181"
     d="m 322.71079,390.4666 c -0.12956,-0.0481 -2.81401,-0.23628 -5.82404,-0.40823 -1.65813,-0.0947 -3.23428,-0.18987 -3.50254,-0.21145 l -0.48776,-0.0392 -0.0379,-2.58155 c -0.0471,-3.20812 -0.15077,-4.48889 -0.67606,-8.35421 l -0.29098,-2.14119 -5.7588,0.0128 -5.75881,0.0128 5.70007,0.0403 c 3.13504,0.0221 5.71295,0.0549 5.72869,0.0729 0.0157,0.0179 0.0464,0.14794 0.0682,0.2889 l 0.0395,0.25628 -1.00623,-0.0363 c -0.55342,-0.02 -6.07827,-0.18915 -12.27745,-0.37598 -6.19917,-0.18684 -11.55657,-0.3581 -11.90532,-0.38058 -0.5778,-0.0372 -0.63688,-0.054 -0.66535,-0.18862 -0.079,-0.37377 -0.32459,-3.70796 -0.3597,-4.88441 -0.0454,-1.52261 0.0131,-2.18495 0.39307,-4.44476 0.63684,-3.78776 1.83981,-8.84272 3.53837,-14.86843 0.66067,-2.34372 8.81527,-29.52097 11.13272,-37.10255 0.95359,-3.11969 1.08807,-3.49442 1.254,-3.49442 0.0587,0 0.10663,0.024 0.10663,0.0534 0,0.0294 -0.24847,0.85416 -0.55217,1.83286 -7.35387,23.69911 -10.57677,34.66157 -12.84116,43.67828 -1.36336,5.42887 -2.10034,9.01681 -2.51217,12.23048 -0.19573,1.52731 -0.21725,3.91635 -0.0422,4.68172 0.18864,0.82467 0.60749,1.6141 0.95509,1.80014 0.0801,0.0429 0.0292,-0.0379 -0.11433,-0.18144 -0.31992,-0.31991 -0.61093,-0.93096 -0.7653,-1.60693 -0.16114,-0.7056 -0.16093,-3.01251 3.9e-4,-4.38516 0.82184,-6.99284 4.10524,-19.4682 11.35641,-43.14901 1.49656,-4.88747 4.58498,-14.83209 4.62779,-14.90135 0.018,-0.0291 2.59216,-0.053 5.72032,-0.053 5.38534,0 5.68559,0.006 5.65011,0.1199 -0.0206,0.0659 -0.34379,1.24532 -0.71818,2.62082 -1.30456,4.79286 -3.11288,11.28148 -5.72861,20.55543 -4.40228,15.60803 -7.38667,26.70592 -7.48078,27.81835 -0.0905,1.06946 0.33331,1.56865 1.65681,1.95157 0.92626,0.26799 2.34786,0.47863 5.75552,0.8528 4.36267,0.47904 4.6897,0.51112 4.73629,0.46453 0.0395,-0.0394 0.38218,-3.87586 0.60421,-6.76333 0.24809,-3.22633 0.44899,-8.18897 0.44937,-11.09993 2.7e-4,-2.0437 0.0837,-3.48312 0.24115,-4.16222 0.26151,-1.1276 0.81438,-1.63965 2.05411,-1.90246 0.64304,-0.13632 3.0956,-0.22912 6.21257,-0.23509 l 2.03295,-0.004 0.0386,0.42824 c 0.0212,0.23553 0.13262,2.69447 0.24752,5.46431 0.30145,7.26769 0.51112,10.88874 0.79149,13.66936 0.16584,1.64468 0.27869,2.22125 0.49607,2.53429 0.45284,0.65214 1.41662,1.16819 2.82861,1.51455 1.10455,0.27095 1.26232,0.33932 1.55662,0.67451 0.38704,0.44081 0.48561,1.11143 0.48909,3.32753 0.003,1.74877 -0.0709,2.78595 -0.27405,3.86191 -0.24829,1.31468 -0.63112,2.16566 -1.24342,2.76394 -0.40659,0.39729 -0.8136,0.55959 -1.58671,0.63273 -0.3755,0.0355 -0.7803,0.11934 -0.95973,0.19871 -0.99656,0.44083 -1.64561,1.86154 -1.9302,4.22505 -0.0624,0.51844 -0.13302,1.96466 -0.16891,3.46016 -0.071,2.95674 -0.11122,3.72934 -0.24633,4.72775 -0.13984,1.03329 -0.19267,1.16608 -0.46131,1.1594 -0.11955,-0.003 -0.2482,-0.0169 -0.28589,-0.0309 z m -24.91981,-13.78691 c -0.36543,-0.0123 -0.98209,-0.0123 -1.37036,-1.3e-4 -0.38828,0.0122 -0.0893,0.0223 0.6644,0.0224 0.7537,6e-5 1.07138,-0.01 0.70596,-0.0222 z m -3.99483,-0.0906 c -2.72404,-0.1085 -5.21155,-0.30703 -5.96633,-0.47618 -0.17669,-0.0396 -0.33425,-0.059 -0.35012,-0.0431 -0.10831,0.10831 1.77882,0.34805 3.57573,0.45426 1.70824,0.10097 1.99044,0.11143 3.08331,0.11435 0.90903,0.002 0.89108,-1.4e-4 -0.34259,-0.0493 z"
     id="path44"
     inkscape:connector-curvature="0"
     transform="scale(0.75)" />
  <path
     style="fill:#ff0000;stroke-width:0.0685181"
     d="m 322.64227,390.4666 c -0.12911,-0.048 -2.80984,-0.23491 -5.85829,-0.40856 -1.67698,-0.0955 -3.23712,-0.19064 -3.46697,-0.21136 l -0.41792,-0.0377 -0.0419,-2.51369 c -0.0541,-3.2447 -0.1563,-4.51287 -0.67635,-8.38912 l -0.29187,-2.17545 -4.627,0.013 -4.627,0.013 4.56804,0.0386 c 2.51242,0.0212 4.58186,0.0539 4.59875,0.0727 0.0169,0.0188 0.0522,0.15285 0.0785,0.298 l 0.0478,0.2639 -1.15209,-0.044 c -0.63364,-0.0242 -6.14705,-0.19545 -12.25202,-0.38054 -12.20254,-0.36995 -12.37203,-0.37655 -12.43892,-0.48477 -0.0505,-0.0817 -0.0664,-0.24795 -0.2793,-2.90735 -0.25463,-3.18131 -0.13233,-4.68338 0.72804,-8.94162 0.36867,-1.82467 0.89443,-4.10856 1.47217,-6.39513 1.08778,-4.30512 1.69888,-6.4406 4.73844,-16.55843 6.86026,-22.83584 8.6938,-28.89296 8.96674,-29.62166 0.13754,-0.3672 0.28741,-0.53473 0.38819,-0.43395 0.0224,0.0224 -0.18105,0.75422 -0.45217,1.62622 -0.27111,0.87199 -0.48155,1.59682 -0.46765,1.61073 0.0139,0.0139 0.25493,-0.70638 0.53562,-1.60062 l 0.51033,-1.6259 5.70812,-0.0175 c 5.41566,-0.0166 5.70634,-0.0114 5.67338,0.10278 -0.0191,0.0662 -0.31626,1.15321 -0.66034,2.41566 -1.23779,4.54145 -2.65688,9.64152 -5.13807,18.46562 -4.34717,15.46029 -6.3138,22.63429 -7.57037,27.61569 -0.5604,2.22156 -0.63393,2.65627 -0.52738,3.11787 0.239,1.03541 1.11047,1.39449 4.4679,1.84096 1.06896,0.14215 7.31067,0.82806 7.53528,0.82806 0.15159,0 0.1365,0.12559 0.47737,-3.97405 0.45095,-5.42367 0.58896,-8.15845 0.68847,-13.64251 0.0682,-3.76086 0.11806,-4.3346 0.43687,-5.0318 0.33169,-0.72536 0.85023,-1.0932 1.836,-1.30241 0.66697,-0.14154 2.90671,-0.23094 5.85742,-0.23379 l 2.41033,-0.002 0.0381,0.35972 c 0.021,0.19784 0.13161,2.61054 0.24585,5.36154 0.24371,5.86842 0.36269,8.20621 0.55097,10.82586 0.26316,3.66147 0.44136,5.01804 0.72212,5.49711 0.36911,0.62984 1.39421,1.18923 2.85223,1.55645 1.03324,0.26023 1.23382,0.3443 1.5066,0.63148 0.46227,0.48666 0.5656,1.28647 0.5153,3.98843 -0.0392,2.10432 -0.12863,2.93711 -0.43114,4.01382 -0.24284,0.86431 -0.54154,1.44894 -0.96977,1.89803 -0.45619,0.47842 -0.84802,0.65482 -1.6418,0.73914 -0.71455,0.0759 -0.98508,0.16149 -1.36772,0.4327 -0.65413,0.46364 -1.11341,1.42777 -1.39349,2.92521 -0.21563,1.15286 -0.27602,1.99191 -0.34547,4.79987 -0.0812,3.28239 -0.18882,4.67303 -0.41764,5.3958 -0.0632,0.19966 -0.0965,0.22213 -0.32213,0.21728 -0.13839,-0.003 -0.28246,-0.0169 -0.32015,-0.0309 z m -28.4864,-13.8543 c -0.14131,-0.0148 -0.37256,-0.0148 -0.51388,0 -0.14132,0.0148 -0.0257,0.0269 0.25694,0.0269 0.28264,0 0.39826,-0.0121 0.25694,-0.0269 z m -1.40462,-0.0691 c -0.19784,-0.0138 -0.52159,-0.0138 -0.71944,0 -0.19784,0.0138 -0.036,0.0252 0.35972,0.0252 0.3957,0 0.55757,-0.0113 0.35972,-0.0252 z m -2.27822,-0.12973 c -0.65949,-0.0523 -1.26074,-0.0854 -1.33611,-0.0735 -0.0754,0.0119 0.20213,0.0452 0.61667,0.0741 0.41453,0.0288 0.78453,0.0632 0.82221,0.0764 0.0377,0.0132 0.29977,0.0226 0.58241,0.021 0.33402,-0.002 0.0942,-0.0362 -0.68518,-0.098 z m -1.59225,-0.14091 c -0.0655,-0.0172 -0.18884,-0.0178 -0.27407,-10e-4 -0.0852,0.0164 -0.0316,0.0304 0.11911,0.0312 0.15073,7.6e-4 0.22047,-0.0127 0.15496,-0.0298 z m -0.54894,-0.0687 c -0.0659,-0.0172 -0.17387,-0.0172 -0.23982,0 -0.0659,0.0172 -0.012,0.0313 0.11991,0.0313 0.1319,0 0.18585,-0.0141 0.11991,-0.0313 z m -0.44537,-0.0667 c -0.0471,-0.019 -0.12419,-0.019 -0.1713,0 -0.0471,0.019 -0.009,0.0346 0.0856,0.0346 0.0942,0 0.13275,-0.0156 0.0856,-0.0346 z m -0.77083,-0.25234 c 0,-0.013 -0.0694,-0.0824 -0.15417,-0.15416 l -0.15416,-0.13053 0.13052,0.15417 c 0.12267,0.14487 0.17781,0.18536 0.17781,0.13052 z m -0.46906,-0.65671 c -0.099,-0.18577 -0.19048,-0.32738 -0.20316,-0.3147 -0.0427,0.0427 0.2983,0.65246 0.36484,0.65246 0.0101,0 -0.0626,-0.15199 -0.16168,-0.33776 z m -0.27882,-0.62867 c -0.0361,-0.0903 -0.0676,-0.1281 -0.07,-0.0841 -0.006,0.10693 0.074,0.3098 0.10837,0.27545 0.015,-0.015 -0.002,-0.10112 -0.0384,-0.19138 z m -0.096,-0.34826 c -0.0219,-0.0547 -0.0381,-0.0384 -0.0414,0.0414 -0.003,0.0722 0.0132,0.1127 0.036,0.0899 0.0228,-0.0228 0.0252,-0.0819 0.005,-0.13133 z m -0.0678,-0.37983 c -0.0174,-0.0667 -0.0327,-0.0287 -0.0341,0.0844 -0.001,0.11305 0.0128,0.1676 0.0316,0.12121 0.0188,-0.0464 0.0199,-0.13889 0.003,-0.20556 z m -0.0668,-0.61702 c -0.0158,-0.10415 -0.0291,-0.0352 -0.0296,0.15322 -5.2e-4,0.18843 0.0124,0.27364 0.0286,0.18937 0.0163,-0.0843 0.0167,-0.23844 9.4e-4,-0.34259 z m -0.0673,-1.30279 c -0.0141,-0.179 -0.0257,-0.0325 -0.0257,0.32546 0,0.35801 0.0115,0.50447 0.0257,0.32546 0.0141,-0.179 0.0141,-0.47191 0,-0.65092 z m 0.0682,-1.30031 c -0.0148,-0.14216 -0.0272,-0.0426 -0.0275,0.22115 -3e-4,0.2638 0.0118,0.38011 0.027,0.25847 0.0151,-0.12163 0.0154,-0.33746 5.5e-4,-0.47962 z m 0.0669,-0.78949 c -0.0163,-0.0848 -0.0297,-0.0154 -0.0297,0.15417 0,0.16958 0.0134,0.23895 0.0297,0.15416 0.0163,-0.0848 0.0163,-0.22354 0,-0.30833 z m 0.0686,-0.61586 c -0.0164,-0.0852 -0.0304,-0.0316 -0.0312,0.1191 -7.6e-4,0.15074 0.0127,0.22048 0.0298,0.15497 0.0172,-0.0655 0.0178,-0.18884 0.001,-0.27407 z m 0.0673,-0.51469 c -0.0172,-0.0659 -0.0313,-0.012 -0.0313,0.11991 0,0.1319 0.0141,0.18585 0.0313,0.11991 0.0172,-0.066 0.0172,-0.17387 0,-0.23982 z m 0.0685,-0.47962 c -0.0172,-0.0659 -0.0313,-0.012 -0.0313,0.1199 0,0.1319 0.0141,0.18586 0.0313,0.11991 0.0172,-0.0659 0.0172,-0.17387 0,-0.23981 z m 0.0685,-0.47963 c -0.0172,-0.066 -0.0313,-0.012 -0.0313,0.11991 0,0.13189 0.0141,0.18585 0.0313,0.1199 0.0172,-0.0659 0.0172,-0.17386 0,-0.23981 z m 0.0688,-0.40981 c -0.0174,-0.0667 -0.0327,-0.0287 -0.0341,0.0843 -0.001,0.11305 0.0128,0.1676 0.0316,0.12121 0.0188,-0.0464 0.0199,-0.13889 0.003,-0.20556 z m 0.0685,-0.4111 c -0.0174,-0.0667 -0.0327,-0.0287 -0.0341,0.0843 -10e-4,0.11305 0.0128,0.1676 0.0316,0.12121 0.0188,-0.0464 0.0199,-0.13889 0.003,-0.20555 z m 0.14186,-0.70362 c 0,-0.1528 -0.006,-0.1491 -0.0523,0.0343 -0.0288,0.11305 -0.0523,0.28264 -0.0523,0.37685 0,0.1528 0.006,0.1491 0.0523,-0.0343 0.0288,-0.11305 0.0523,-0.28264 0.0523,-0.37685 z m 0.21175,-1.13055 c -0.002,-0.0754 -0.0458,0.048 -0.0968,0.27407 -0.051,0.22611 -0.0909,0.47278 -0.0887,0.54815 0.002,0.0754 0.0458,-0.048 0.0968,-0.27407 0.051,-0.22611 0.0909,-0.47278 0.0887,-0.54815 z m 0.0554,-0.39398 c -0.019,-0.0471 -0.0346,-0.009 -0.0346,0.0856 0,0.0942 0.0156,0.13275 0.0346,0.0856 0.019,-0.0471 0.019,-0.12419 0,-0.1713 z m 0.0685,-0.34259 c -0.019,-0.0471 -0.0346,-0.009 -0.0346,0.0856 0,0.0942 0.0156,0.13275 0.0346,0.0857 0.019,-0.0471 0.019,-0.12419 0,-0.1713 z m 0.21398,-0.90786 c -8.6e-4,-0.0754 -0.0412,0.0171 -0.0896,0.20555 -0.0484,0.18843 -0.0874,0.40426 -0.0865,0.47963 8.6e-4,0.0754 0.0412,-0.0171 0.0896,-0.20556 0.0484,-0.18842 0.0874,-0.40425 0.0865,-0.47962 z m 0.0601,-0.39398 c -0.019,-0.0471 -0.0346,-0.009 -0.0346,0.0856 0,0.0942 0.0155,0.13275 0.0346,0.0856 0.019,-0.0471 0.019,-0.12418 0,-0.17129 z m 0.14652,-0.56528 c 0,-0.10851 -0.0114,-0.10137 -0.0549,0.0343 -0.0302,0.0942 -0.0549,0.23297 -0.0549,0.30834 0,0.10851 0.0114,0.10137 0.0549,-0.0343 0.0302,-0.0942 0.0549,-0.23297 0.0549,-0.30834 z m 0.13703,-0.61666 c 0,-0.10851 -0.0114,-0.10138 -0.0548,0.0343 -0.0302,0.0942 -0.0549,0.23296 -0.0549,0.30833 0,0.10851 0.0114,0.10138 0.0549,-0.0343 0.0302,-0.0942 0.0548,-0.23296 0.0548,-0.30833 z m 0.21177,-0.92499 c -0.003,-0.0565 -0.0477,0.0514 -0.10013,0.23981 -0.0524,0.18843 -0.0932,0.38884 -0.0905,0.44537 0.003,0.0565 0.0477,-0.0514 0.10014,-0.23981 0.0524,-0.18843 0.0932,-0.38885 0.0905,-0.44537 z m 0.27377,-1.16481 c -0.003,-0.0565 -0.0628,0.11305 -0.13391,0.37685 -0.0711,0.26379 -0.1272,0.52588 -0.12466,0.5824 0.003,0.0565 0.0628,-0.11305 0.13391,-0.37685 0.0711,-0.26379 0.1272,-0.52587 0.12466,-0.5824 z m 0.0546,-0.28692 c -0.0219,-0.0547 -0.0381,-0.0384 -0.0414,0.0414 -0.003,0.0722 0.0132,0.11269 0.036,0.0899 0.0228,-0.0228 0.0252,-0.0819 0.005,-0.13133 z m 0.95686,-3.85602 c -0.0231,-0.0763 -0.93831,3.54908 -0.92892,3.67953 0.003,0.0476 0.21833,-0.74593 0.47756,-1.76343 0.25924,-1.01749 0.46235,-1.87974 0.45136,-1.9161 z m 0.0709,-0.25507 c -0.0219,-0.0546 -0.0381,-0.0384 -0.0414,0.0414 -0.003,0.0722 0.0132,0.1127 0.036,0.0899 0.0228,-0.0228 0.0252,-0.0819 0.005,-0.13133 z m 0.22496,-0.73165 c 0.0805,-0.31527 0.13338,-0.58614 0.11758,-0.60194 -0.0256,-0.0256 -0.32083,1.06414 -0.32083,1.18409 0,0.13809 0.0722,-0.0686 0.20325,-0.58215 z m 0.36801,-1.44955 c 0.039,-0.22724 0.0366,-0.2255 -0.0508,0.0372 -0.0504,0.15155 -0.11003,0.3828 -0.13252,0.51389 -0.039,0.22724 -0.0366,0.2255 0.0508,-0.0372 0.0504,-0.15155 0.11003,-0.38279 0.13251,-0.51388 z m 0.38507,-1.36889 c 0.15767,-0.58412 0.54852,-1.99793 0.86855,-3.1418 0.32004,-1.14388 0.57023,-2.09144 0.55598,-2.10569 -0.0143,-0.0143 -0.14205,0.38207 -0.28398,0.88071 -0.4628,1.62585 -1.48022,5.35064 -1.48022,5.41911 0,0.16279 0.0713,-0.0581 0.33967,-1.05233 z m 1.745,-6.26046 c 0.13829,-0.48498 0.23902,-0.89419 0.22384,-0.90937 -0.0271,-0.0271 -0.52704,1.66846 -0.52704,1.78745 0,0.14445 0.0668,-0.049 0.3032,-0.87808 z m 0.37235,-1.34505 c 0,-0.0648 -0.0218,-0.0521 -0.0589,0.0343 -0.0324,0.0754 -0.0589,0.18329 -0.0589,0.23981 0,0.0648 0.0218,0.0521 0.0589,-0.0343 0.0324,-0.0754 0.0589,-0.18328 0.0589,-0.23981 z m 0.34977,-1.15534 c 0.15622,-0.54123 0.27167,-0.99642 0.25654,-1.01155 -0.0254,-0.0254 -0.59667,1.89308 -0.59667,2.00362 0,0.14107 0.0826,-0.0997 0.34013,-0.99207 z m 0.54819,-1.88387 c 0.11893,-0.40912 0.20373,-0.75636 0.18845,-0.77164 -0.0258,-0.0258 -0.46011,1.4115 -0.46011,1.5226 0,0.13368 0.0738,-0.0704 0.27166,-0.75096 z m 0.54338,-1.92835 c -0.004,-0.0377 -0.0803,0.16273 -0.17053,0.44537 -0.0903,0.28263 -0.16123,0.54472 -0.15771,0.5824 0.004,0.0377 0.0803,-0.16273 0.17053,-0.44537 0.0903,-0.28263 0.16123,-0.54472 0.15771,-0.5824 z m 0.2023,-0.65092 c 0,-0.0565 -0.0415,0.005 -0.0924,0.13703 -0.0508,0.1319 -0.0924,0.28607 -0.0924,0.34259 0,0.0565 0.0416,-0.005 0.0924,-0.13703 0.0508,-0.1319 0.0924,-0.28607 0.0924,-0.34259 z m 0.20556,-0.68518 c 0,-0.0565 -0.0416,0.005 -0.0924,0.13703 -0.0508,0.1319 -0.0923,0.28607 -0.0923,0.34259 0,0.0565 0.0415,-0.005 0.0923,-0.13703 0.0508,-0.1319 0.0924,-0.28607 0.0924,-0.34259 z m 0.13783,-0.47963 c 0,-0.0648 -0.0218,-0.0521 -0.0589,0.0343 -0.0324,0.0754 -0.0589,0.18328 -0.0589,0.23981 0,0.0648 0.0218,0.0521 0.0589,-0.0343 0.0324,-0.0754 0.0589,-0.18328 0.0589,-0.23981 z m 0.20476,-0.68518 c 0,-0.0565 -0.0416,0.005 -0.0924,0.13703 -0.0508,0.1319 -0.0924,0.28607 -0.0924,0.3426 0,0.0565 0.0415,-0.005 0.0924,-0.13704 0.0508,-0.1319 0.0924,-0.28606 0.0924,-0.34259 z m 0.20555,-0.68518 c 0,-0.0565 -0.0416,0.005 -0.0923,0.13703 -0.0508,0.1319 -0.0924,0.28607 -0.0924,0.34259 0,0.0565 0.0416,-0.005 0.0924,-0.13703 0.0508,-0.1319 0.0923,-0.28607 0.0923,-0.34259 z m 0.20556,-0.68518 c 0,-0.0565 -0.0416,0.005 -0.0923,0.13703 -0.0508,0.1319 -0.0924,0.28607 -0.0924,0.34259 0,0.0565 0.0416,-0.005 0.0924,-0.13703 0.0508,-0.1319 0.0923,-0.28607 0.0923,-0.34259 z m 0.20555,-0.68518 c 0,-0.0565 -0.0416,0.005 -0.0924,0.13703 -0.0508,0.1319 -0.0923,0.28606 -0.0923,0.34259 0,0.0565 0.0416,-0.005 0.0923,-0.13703 0.0508,-0.1319 0.0924,-0.28607 0.0924,-0.34259 z m 0.20556,-0.68519 c 0,-0.0565 -0.0416,0.005 -0.0924,0.13704 -0.0508,0.1319 -0.0924,0.28606 -0.0924,0.34259 0,0.0565 0.0416,-0.005 0.0924,-0.13704 0.0508,-0.13189 0.0924,-0.28606 0.0924,-0.34259 z m 0.20555,-0.68518 c 0,-0.0565 -0.0416,0.005 -0.0924,0.13704 -0.0508,0.1319 -0.0924,0.28606 -0.0924,0.34259 0,0.0565 0.0416,-0.005 0.0924,-0.13704 0.0508,-0.13189 0.0924,-0.28606 0.0924,-0.34259 z m 0.20555,-0.68518 c 0,-0.0565 -0.0416,0.005 -0.0924,0.13704 -0.0508,0.1319 -0.0924,0.28606 -0.0924,0.34259 0,0.0565 0.0416,-0.005 0.0924,-0.13704 0.0508,-0.13189 0.0924,-0.28606 0.0924,-0.34259 z m 0.27388,-0.89073 c 0,-0.0565 -0.0569,0.0514 -0.12641,0.23981 -0.0695,0.18843 -0.12642,0.38884 -0.12642,0.44537 0,0.0565 0.0569,-0.0514 0.12642,-0.23982 0.0695,-0.18842 0.12641,-0.38884 0.12641,-0.44536 z m 0.20575,-0.68518 c 0,-0.0565 -0.0416,0.005 -0.0924,0.13703 -0.0508,0.1319 -0.0924,0.28607 -0.0924,0.34259 0,0.0565 0.0416,-0.005 0.0924,-0.13703 0.0508,-0.1319 0.0924,-0.28607 0.0924,-0.34259 z m 0.20556,-0.68518 c 0,-0.0565 -0.0416,0.005 -0.0924,0.13703 -0.0508,0.1319 -0.0924,0.28606 -0.0924,0.34259 0,0.0565 0.0416,-0.005 0.0924,-0.13703 0.0508,-0.1319 0.0924,-0.28607 0.0924,-0.34259 z m 0.20634,-0.68519 c 0,-0.0648 -0.0218,-0.0521 -0.0589,0.0343 -0.0324,0.0754 -0.0589,0.18329 -0.0589,0.23982 0,0.0648 0.0218,0.0521 0.0589,-0.0343 0.0324,-0.0754 0.0589,-0.18329 0.0589,-0.23982 z m 0.27328,-0.89073 c 0,-0.0565 -0.0416,0.005 -0.0924,0.13704 -0.0508,0.13189 -0.0924,0.28606 -0.0924,0.34259 0,0.0565 0.0416,-0.005 0.0924,-0.13704 0.0508,-0.1319 0.0924,-0.28606 0.0924,-0.34259 z m 0.27407,-0.89074 c 0,-0.0565 -0.0415,0.005 -0.0924,0.13704 -0.0508,0.1319 -0.0924,0.28606 -0.0924,0.34259 0,0.0565 0.0416,-0.005 0.0924,-0.13704 0.0508,-0.13189 0.0924,-0.28606 0.0924,-0.34259 z m 0.20556,-0.68518 c 0,-0.0565 -0.0416,0.005 -0.0924,0.13704 -0.0508,0.1319 -0.0923,0.28606 -0.0923,0.34259 0,0.0565 0.0415,-0.005 0.0923,-0.13704 0.0508,-0.13189 0.0924,-0.28606 0.0924,-0.34259 z m 0.27407,-0.89073 c 0,-0.0565 -0.0416,0.005 -0.0924,0.13703 -0.0508,0.1319 -0.0923,0.28607 -0.0923,0.34259 0,0.0565 0.0416,-0.005 0.0923,-0.13703 0.0508,-0.1319 0.0924,-0.28607 0.0924,-0.34259 z m 0.27388,-0.89074 c 0,-0.0565 -0.0569,0.0514 -0.12642,0.23982 -0.0695,0.18842 -0.12641,0.38884 -0.12641,0.44536 0,0.0565 0.0569,-0.0514 0.12641,-0.23981 0.0695,-0.18843 0.12642,-0.38884 0.12642,-0.44537 z m 0.27407,-0.89073 c 0,-0.0565 -0.0569,0.0514 -0.12641,0.23981 -0.0695,0.18842 -0.12642,0.38884 -0.12642,0.44537 0,0.0565 0.0569,-0.0514 0.12642,-0.23982 0.0695,-0.18842 0.12641,-0.38884 0.12641,-0.44536 z m 0.27407,-0.89074 c 0,-0.0565 -0.0569,0.0514 -0.12641,0.23981 -0.0695,0.18843 -0.12642,0.38885 -0.12642,0.44537 0,0.0565 0.0569,-0.0514 0.12642,-0.23981 0.0695,-0.18843 0.12641,-0.38884 0.12641,-0.44537 z m 0.27408,-0.89073 c 0,-0.0565 -0.0569,0.0514 -0.12642,0.23981 -0.0695,0.18842 -0.12641,0.38884 -0.12641,0.44537 0,0.0565 0.0569,-0.0514 0.12641,-0.23982 0.0695,-0.18842 0.12642,-0.38884 0.12642,-0.44536 z m 0.27426,-0.89074 c 0,-0.0565 -0.0416,0.005 -0.0924,0.13704 -0.0508,0.13189 -0.0923,0.28606 -0.0923,0.34259 0,0.0565 0.0416,-0.005 0.0923,-0.13704 0.0508,-0.1319 0.0924,-0.28606 0.0924,-0.34259 z m 0.27408,-0.89073 c 0,-0.0565 -0.0416,0.005 -0.0924,0.13703 -0.0508,0.1319 -0.0923,0.28606 -0.0923,0.34259 0,0.0565 0.0416,-0.005 0.0923,-0.13703 0.0508,-0.1319 0.0924,-0.28607 0.0924,-0.34259 z m 0.34239,-1.09629 c 0,-0.0565 -0.0569,0.0514 -0.12641,0.23981 -0.0695,0.18842 -0.12642,0.38884 -0.12642,0.44537 0,0.0565 0.0569,-0.0514 0.12642,-0.23982 0.0695,-0.18842 0.12641,-0.38884 0.12641,-0.44536 z m 0.27407,-0.89074 c 0,-0.0565 -0.0569,0.0514 -0.12641,0.23981 -0.0695,0.18843 -0.12642,0.38884 -0.12642,0.44537 0,0.0565 0.0569,-0.0514 0.12642,-0.23981 0.0695,-0.18843 0.12641,-0.38884 0.12641,-0.44537 z m 0.34811,-1.12676 c -0.003,-0.0398 -0.0799,0.14182 -0.17129,0.40354 -0.0914,0.26171 -0.1639,0.50838 -0.1611,0.54814 0.003,0.0398 0.0799,-0.14183 0.1713,-0.40354 0.0914,-0.26171 0.1639,-0.50838 0.16109,-0.54814 z m 0.26856,-0.86026 c 0,-0.0565 -0.0569,0.0514 -0.12642,0.23981 -0.0695,0.18842 -0.12641,0.38884 -0.12641,0.44537 0,0.0565 0.0569,-0.0514 0.12641,-0.23982 0.0695,-0.18842 0.12642,-0.38884 0.12642,-0.44536 z m 0.34811,-1.12677 c -0.003,-0.0398 -0.0799,0.14183 -0.1713,0.40354 -0.0914,0.26172 -0.1639,0.50838 -0.16109,0.54815 0.003,0.0398 0.0799,-0.14183 0.17129,-0.40354 0.0914,-0.26172 0.1639,-0.50838 0.1611,-0.54815 z m 0.26855,-0.86026 c 0,-0.0565 -0.0569,0.0514 -0.12642,0.23981 -0.0695,0.18843 -0.12641,0.38884 -0.12641,0.44537 0,0.0565 0.0569,-0.0514 0.12641,-0.23981 0.0695,-0.18843 0.12642,-0.38884 0.12642,-0.44537 z"
     id="path46"
     inkscape:connector-curvature="0"
     transform="scale(0.75)" />
</svg>
