<?xml version="1.0" encoding="UTF-8" standalone="no"?>
<svg
   xmlns:dc="http://purl.org/dc/elements/1.1/"
   xmlns:cc="http://creativecommons.org/ns#"
   xmlns:rdf="http://www.w3.org/1999/02/22-rdf-syntax-ns#"
   xmlns:svg="http://www.w3.org/2000/svg"
   xmlns="http://www.w3.org/2000/svg"
   xmlns:sodipodi="http://sodipodi.sourceforge.net/DTD/sodipodi-0.dtd"
   xmlns:inkscape="http://www.inkscape.org/namespaces/inkscape"
   version="1.0"
   width="510.000000pt"
   height="550.000000pt"
   viewBox="0 0 510.000000 550.000000"
   preserveAspectRatio="xMidYMid meet"
   id="svg32"
   sodipodi:docname="d6icon.svg"
   inkscape:version="0.92.4 (5da689c313, 2019-01-14)">
  <defs
     id="defs36" />
  <sodipodi:namedview
     pagecolor="#ffffff"
     bordercolor="#666666"
     borderopacity="1"
     objecttolerance="10"
     gridtolerance="10"
     guidetolerance="10"
     inkscape:pageopacity="0"
     inkscape:pageshadow="2"
     inkscape:window-width="1920"
     inkscape:window-height="1027"
     id="namedview34"
     showgrid="false"
     inkscape:zoom="1.1727273"
     inkscape:cx="340"
     inkscape:cy="366.66667"
     inkscape:window-x="1912"
     inkscape:window-y="-8"
     inkscape:window-maximized="1"
     inkscape:current-layer="svg32" />
  <metadata
     id="metadata24">
Created by potrace 1.15, written by Peter Selinger 2001-2017
<rdf:RDF>
  <cc:Work
     rdf:about="">
    <dc:format>image/svg+xml</dc:format>
    <dc:type
       rdf:resource="http://purl.org/dc/dcmitype/StillImage" />
    <dc:title></dc:title>
  </cc:Work>
</rdf:RDF>
</metadata>
  <g
     transform="translate(0.000000,550.000000) scale(0.100000,-0.100000)"
     fill="#000000"
     stroke="none"
     id="g30">
    <path
       d="M2545 5379 c-16 -10 -542 -315 -1168 -676 l-1138 -657 7 -1346 c5 -979 9 -1348 18 -1356 6 -7 497 -292 1091 -635 594 -342 1113 -642 1154 -666 l73 -43 1164 672 1164 672 0 1356 0 1356 -1164 672 c-640 370 -1165 672 -1167 671 -2 0 -17 -9 -34 -20z m499 -1120 c252 -374 456 -683 453 -686 -10 -9 -1202 -16 -1528 -8 l-316 7 461 684 c254 376 463 683 466 683 3 0 211 -306 464 -680z m-996 457 c-5 -20 -732 -1095 -741 -1096 -15 0 -587 334 -585 342 3 8 1307 766 1321 767 5 1 7 -5 5 -13z m1732 -364 c360 -208 655 -384 655 -391 0 -13 -557 -341 -578 -341 -12 1 -739 1070 -745 1096 -2 8 0 14 5 14 4 0 303 -170 663 -378z m-2924 -833 c154 -88 283 -164 288 -169 7 -7 -156 -349 -520 -1095 l-59 -119 -6 149 c-9 206 -10 1177 -2 1298 3 53 9 97 13 97 5 0 133 -72 286 -161z m3747 -21 c15 -391 5 -1372 -13 -1351 -4 4 -137 275 -295 602 -230 473 -286 595 -274 602 255 149 565 328 570 329 3 0 9 -82 12 -182z m-1132 -244 l66 -7 -471 -816 c-283 -489 -478 -816 -486 -816 -9 0 -203 327 -485 815 l-471 815 51 6 c68 8 1714 10 1796 3z m-1646 -974 c246 -426 452 -781 457 -788 18 -21 0 -27 -70 -26 -139 3 -1572 110 -1572 117 0 1 46 97 103 212 57 116 220 450 362 743 142 293 262 529 266 525 4 -5 208 -357 454 -783z m2281 155 c168 -347 330 -677 358 -735 28 -58 52 -108 54 -112 5 -11 -56 -17 -798 -70 -873 -62 -872 -62 -843 -26 6 7 212 362 458 788 246 426 449 779 452 783 3 5 7 7 8 5 2 -2 142 -287 311 -633z m-2308 -1249 c338 -25 616 -46 618 -49 10 -10 17 -414 9 -548 l-7 -136 -668 386 c-407 235 -664 389 -657 393 7 5 30 6 52 3 22 -3 316 -25 653 -49z m2266 45 c15 -6 -70 -59 -380 -238 -219 -127 -520 -301 -669 -387 l-270 -156 -8 93 c-9 97 -4 584 6 593 3 3 281 26 619 50 337 24 622 45 633 47 32 7 49 6 69 -2z"
       id="path26" />
    <path
       d="M2489 2808 l-74 -183 -3 -116 c-4 -135 8 -177 60 -209 27 -17 46 -20 100 -18 75 4 109 25 134 85 21 49 19 219 -4 263 -20 42 -74 72 -119 67 -18 -1 -33 -2 -33 -1 0 1 18 46 41 100 23 55 50 120 60 147 l19 47 -53 0 -53 0 -75 -182z m121 -227 c5 -11 10 -56 10 -100 0 -71 -2 -82 -22 -95 -32 -23 -54 -20 -77 10 -27 34 -30 147 -5 182 20 29 79 31 94 3z"
       id="path28" />
  </g>
  <path
     style="fill:#ff0000;stroke:#ff0000;stroke-width:0.85271317"
     d="M 340.34109,730.66822 C 338.69961,729.65515 298.79264,706.56869 251.65891,679.36499 148.95287,620.08717 63.83816,570.78354 47.320899,560.99993 L 35.269705,553.86169 34.70739,540.63239 C 34.066694,525.55908 32.549178,319.02297 32.526613,243.82538 L 32.511628,193.89107 151.25194,125.32095 C 216.55911,87.607395 286.63803,47.098535 306.98288,35.301268 l 36.99063,-21.449576 9.90859,5.591892 c 9.06166,5.113926 285.73161,164.670856 295.56751,170.455246 l 4.26357,2.50736 0.21515,180.84002 0.21514,180.84001 -154.09307,88.98402 c -84.7512,48.94121 -154.68522,89.0866 -155.40895,89.21199 -0.72373,0.12537 -2.65889,-0.60093 -4.30036,-1.61401 z m 95.07751,-97.08403 c 73.79451,-42.63476 100.90213,-58.62244 104.8504,-61.83925 5.07311,-4.13326 3.5312,-4.17635 -36.63334,-1.02391 -15.94574,1.25156 -47.60271,3.63771 -70.34884,5.30257 -46.21927,3.38294 -67.37029,5.24865 -68.13192,6.00984 -0.77495,0.77451 -0.61248,84.73804 0.17113,88.43599 0.37544,1.77175 0.95103,3.06517 1.27907,2.87426 0.32805,-0.19091 31.29412,-18.08269 68.8135,-39.7595 z m -112.63337,37.2879 c 1.79046,-6.24546 1.27416,-87.12794 -0.56792,-88.97003 -0.86047,-0.86046 -9.81968,-1.61394 -90.1708,-7.58338 -84.12696,-6.24997 -85.39572,-6.32542 -85.82974,-5.10433 -0.49269,1.3861 25.39193,16.86608 109.70571,65.60814 27.43605,15.86087 53.33721,30.87904 57.55814,33.37371 4.22093,2.49467 7.91746,4.54899 8.2145,4.56514 0.29704,0.0161 0.78759,-0.83401 1.09011,-1.88925 z m -18.7542,-133.32766 c 0.74185,-0.28467 1.34881,-0.83813 1.34881,-1.22989 0,-0.39177 -2.54081,-5.05129 -5.64624,-10.3545 -6.6359,-11.33227 -111.37812,-192.13673 -114.3865,-197.45229 -1.12808,-1.99322 -2.35343,-3.62403 -2.723,-3.62403 -0.96496,0 -20.74966,39.36684 -49.71185,98.91473 -13.80022,28.37403 -30.20248,62.04758 -36.449455,74.8301 -6.246977,12.78253 -11.17098,23.42812 -10.942228,23.65687 1.004188,1.00419 101.658803,8.85127 194.704243,15.17924 8.06384,0.54841 22.45925,0.59665 23.80622,0.0798 z m 111.34881,-0.78172 c 24.90118,-1.53859 105.94194,-7.24428 145.3876,-10.23604 29.41127,-2.2307 40.49117,-3.42567 41.45204,-4.47061 0.31456,-0.34207 -8.96798,-20.19172 -20.62786,-44.11032 -52.53671,-107.77171 -75.28316,-153.91473 -75.8731,-153.91473 -0.35022,0 -5.33951,8.15407 -11.0873,18.12015 -41.08072,71.22988 -88.40314,153.02549 -99.47561,171.94103 -10.0323,17.1386 -12.90156,22.67477 -12.03612,23.22338 1.62605,1.03078 8.55072,0.91211 32.26035,-0.55286 z M 362.0194,489.45736 c 28.85903,-48.13223 109.93733,-188.43602 109.27536,-189.09801 -0.24335,-0.24334 -6.11271,-0.80551 -13.04302,-1.24926 -13.48042,-0.86316 -232.7641,-0.21394 -238.35639,0.70569 -1.75872,0.28921 -3.19768,0.8057 -3.19768,1.14774 0,0.55929 55.2631,96.44686 86.76573,150.54811 15.33662,26.33845 34.54574,58.42659 37.97948,63.44335 2.43325,3.55502 2.63285,3.66772 3.77595,2.13178 0.66379,-0.8919 8.22405,-13.32513 16.80057,-27.6294 z M 116.62704,364.53488 c 25.89563,-53.61412 36.32748,-76.24518 35.7905,-77.64455 -0.4966,-1.29411 -6.38922,-4.8177 -46.54886,-27.83467 -16.413361,-9.4071 -29.718835,-16.52334 -30.128434,-16.11374 -2.02316,2.02317 -2.420428,24.12058 -1.956051,108.80227 0.267474,48.77519 0.740282,90.60077 1.050685,92.94573 l 0.564368,4.26357 10.523315,-21.31783 C 91.710386,415.91085 105.5274,387.5155 116.62704,364.53488 Z m 497.42433,54.5263 c 1.65861,-52.56087 0.62456,-171.89609 -1.52232,-175.68674 -0.42832,-0.75626 -3.14812,0.40921 -9.55231,4.09328 -28.64319,16.47731 -64.61082,37.43324 -66.0297,38.47108 -1.617,1.18277 -1.61854,1.28967 -0.0774,5.36656 2.92507,7.73785 10.79317,24.4587 36.4649,77.49309 33.94464,70.12516 38.12522,78.40845 39.08722,77.44645 0.43833,-0.43832 1.17165,-12.671 1.62961,-27.18372 z M 451.83333,257.80891 c 8.09012,-0.30688 14.70931,-0.84456 14.70931,-1.19485 0,-1.40689 -107.50896,-161.621305 -119.12486,-177.524913 -1.62711,-2.227713 -3.21349,-4.043561 -3.52529,-4.035218 -0.9143,0.02446 -16.37087,22.643078 -85.64754,125.333671 l -38.25437,56.70542 12.63649,0.46115 c 18.82701,0.68706 202.19184,0.90015 219.20626,0.25474 z m -268.55581,-19.2624 c 24.03321,-34.57408 86.55559,-127.54316 89.13984,-132.54851 3.04794,-5.90346 4.61139,-6.71067 -64.61573,33.36146 -82.89959,47.98644 -110.634402,64.39969 -111.063609,65.72657 -0.419925,1.2982 74.396609,45.56399 77.068939,45.59844 0.56321,0.008 4.82496,-5.45482 9.47056,-12.13796 z m 341.69559,6.95082 c 27.37998,-15.21172 66.49201,-38.94044 66.49201,-40.33976 0,-1.43042 -59.33847,-36.47644 -134.72869,-79.57241 -45.64025,-26.089751 -43.09116,-24.82327 -41.8047,-20.77 1.87557,5.90942 97.48628,145.88251 99.64722,145.88251 0.56866,0 5.24603,-2.34015 10.39416,-5.20034 z"
     id="path38"
     inkscape:connector-curvature="0"
     transform="scale(0.75000001)" />
  <path
     style="fill:#ff0000;stroke:#ff0000;stroke-width:0.85271317"
     d="m 333.34147,428.1293 c -4.12766,-1.34684 -7.67341,-4.51772 -9.5226,-8.51584 -1.66611,-3.60227 -1.79884,-5.21296 -1.65773,-20.11734 l 0.15339,-16.20155 8.52101,-20.89147 c 4.68655,-11.49031 9.13139,-22.33043 9.87743,-24.08915 l 1.35643,-3.19767 h 6.76278 6.76279 l -5.19376,12.57752 c -2.85657,6.91763 -6.44677,15.64729 -7.97822,19.39922 l -2.78446,6.82171 5.68074,0.44339 c 8.88288,0.69333 13.5134,4.06321 15.65463,11.39273 0.58092,1.98853 1.04467,8.90382 1.06878,15.93735 0.0418,12.19218 -0.006,12.51919 -2.54213,17.47864 -3.48604,6.81641 -7.11068,8.83622 -16.76798,9.34387 -3.89477,0.20473 -8.12077,0.0331 -9.3911,-0.38141 z m 11.92397,-12.00885 c 3.65303,-2.22725 4.46323,-4.62133 4.41835,-13.05581 -0.0475,-8.93268 -1.08539,-14.24252 -3.07578,-15.73607 -2.04595,-1.53524 -8.34389,-0.89657 -10.51259,1.06608 -1.64974,1.49299 -3.42875,7.91667 -3.42875,12.38054 0,5.66218 1.92077,11.47116 4.71788,14.26827 3.24936,3.24937 4.12222,3.36865 7.88089,1.07699 z"
     id="path40"
     inkscape:connector-curvature="0"
     transform="scale(0.75000001)" />
</svg>
