<?xml version="1.0" encoding="UTF-8" standalone="no"?>
<svg
   xmlns:dc="http://purl.org/dc/elements/1.1/"
   xmlns:cc="http://creativecommons.org/ns#"
   xmlns:rdf="http://www.w3.org/1999/02/22-rdf-syntax-ns#"
   xmlns:svg="http://www.w3.org/2000/svg"
   xmlns="http://www.w3.org/2000/svg"
   xmlns:sodipodi="http://sodipodi.sourceforge.net/DTD/sodipodi-0.dtd"
   xmlns:inkscape="http://www.inkscape.org/namespaces/inkscape"
   version="1.0"
   width="510.000000pt"
   height="550.000000pt"
   viewBox="0 0 510.000000 550.000000"
   preserveAspectRatio="xMidYMid meet"
   id="svg4853"
   sodipodi:docname="d8icon.svg"
   inkscape:version="0.92.4 (5da689c313, 2019-01-14)">
  <defs
     id="defs4857" />
  <sodipodi:namedview
     pagecolor="#ffffff"
     bordercolor="#666666"
     borderopacity="1"
     objecttolerance="10"
     gridtolerance="10"
     guidetolerance="10"
     inkscape:pageopacity="0"
     inkscape:pageshadow="2"
     inkscape:window-width="1920"
     inkscape:window-height="1027"
     id="namedview4855"
     showgrid="false"
     inkscape:zoom="1.2872727"
     inkscape:cx="346.50178"
     inkscape:cy="357.56547"
     inkscape:window-x="1912"
     inkscape:window-y="-8"
     inkscape:window-maximized="1"
     inkscape:current-layer="svg4853" />
  <metadata
     id="metadata4845">
Created by potrace 1.15, written by Peter Selinger 2001-2017
<rdf:RDF>
  <cc:Work
     rdf:about="">
    <dc:format>image/svg+xml</dc:format>
    <dc:type
       rdf:resource="http://purl.org/dc/dcmitype/StillImage" />
    <dc:title></dc:title>
  </cc:Work>
</rdf:RDF>
</metadata>
  <g
     transform="translate(0.000000,550.000000) scale(0.100000,-0.100000)"
     fill="#000000"
     stroke="none"
     id="g4851">
    <path
       d="M2545 5379 c-16 -10 -542 -315 -1168 -676 l-1138 -657 7 -1346 c5 -979 9 -1348 18 -1356 6 -7 497 -292 1091 -635 594 -342 1113 -642 1154 -666 l73 -43 1164 672 1164 672 0 1356 0 1356 -1164 672 c-640 370 -1165 672 -1167 671 -2 0 -17 -9 -34 -20z m499 -1120 c252 -374 456 -683 453 -686 -10 -9 -1202 -16 -1528 -8 l-316 7 461 684 c254 376 463 683 466 683 3 0 211 -306 464 -680z m-996 457 c-5 -20 -732 -1095 -741 -1096 -15 0 -587 334 -585 342 3 8 1307 766 1321 767 5 1 7 -5 5 -13z m1732 -364 c360 -208 655 -384 655 -391 0 -13 -557 -341 -578 -341 -12 1 -739 1070 -745 1096 -2 8 0 14 5 14 4 0 303 -170 663 -378z m-2924 -833 c154 -88 283 -164 288 -169 7 -7 -156 -349 -520 -1095 l-59 -119 -6 149 c-9 206 -10 1177 -2 1298 3 53 9 97 13 97 5 0 133 -72 286 -161z m3747 -21 c15 -391 5 -1372 -13 -1351 -4 4 -137 275 -295 602 -230 473 -286 595 -274 602 255 149 565 328 570 329 3 0 9 -82 12 -182z m-1132 -244 l66 -7 -471 -816 c-283 -489 -478 -816 -486 -816 -9 0 -203 327 -485 815 l-471 815 51 6 c68 8 1714 10 1796 3z m-1646 -974 c246 -426 452 -781 457 -788 18 -21 0 -27 -70 -26 -139 3 -1572 110 -1572 117 0 1 46 97 103 212 57 116 220 450 362 743 142 293 262 529 266 525 4 -5 208 -357 454 -783z m2281 155 c168 -347 330 -677 358 -735 28 -58 52 -108 54 -112 5 -11 -56 -17 -798 -70 -873 -62 -872 -62 -843 -26 6 7 212 362 458 788 246 426 449 779 452 783 3 5 7 7 8 5 2 -2 142 -287 311 -633z m-2308 -1249 c338 -25 616 -46 618 -49 10 -10 17 -414 9 -548 l-7 -136 -668 386 c-407 235 -664 389 -657 393 7 5 30 6 52 3 22 -3 316 -25 653 -49z m2266 45 c15 -6 -70 -59 -380 -238 -219 -127 -520 -301 -669 -387 l-270 -156 -8 93 c-9 97 -4 584 6 593 3 3 281 26 619 50 337 24 622 45 633 47 32 7 49 6 69 -2z"
       id="path4847" />
    <path
       d="M2478 2944 c-45 -24 -58 -62 -58 -165 0 -87 2 -95 27 -121 l27 -28 -21 -22 c-37 -41 -43 -65 -43 -165 0 -110 15 -150 69 -178 39 -19 133 -19 172 0 55 29 69 67 69 189 l0 109 -35 33 -36 33 33 30 c33 29 33 30 33 118 0 100 -17 143 -65 168 -37 19 -136 19 -172 -1z m126 -96 c10 -14 16 -44 16 -82 0 -66 -17 -96 -56 -96 -34 0 -54 36 -54 100 0 64 20 100 55 100 13 0 31 -10 39 -22z m-10 -280 c31 -13 40 -53 34 -140 -3 -45 -9 -64 -23 -75 -22 -16 -74 -11 -86 9 -5 7 -9 52 -9 100 0 79 2 88 22 102 27 19 30 19 62 4z"
       id="path4849" />
  </g>
  <path
     style="fill:#ff0000;stroke:#ff0000;stroke-width:0.77683616"
     d="M 334.48446,727.33673 C 329.7846,724.54969 294.12782,703.91119 255.24718,681.47339 165.00777,629.39674 65.612492,571.83721 48.608757,561.80964 l -13.206215,-7.78807 -0.51892,-8.41968 C 34.345628,536.87274 32.937444,363.47706 32.528909,255.65624 L 32.295197,193.97489 74.632768,169.53198 C 187.75684,104.22164 309.16184,34.040539 325.55085,24.482721 l 18.25565,-10.646416 3.88418,2.1344 c 7.78251,4.276573 87.194,49.977831 195.37429,112.437765 l 110.69915,63.91424 0.16887,180.97494 0.16887,180.97495 -72.02621,41.51515 c -39.61442,22.83333 -109.14454,62.9472 -154.51139,89.14195 -45.36683,26.19473 -82.94628,47.5925 -83.50988,47.55058 -0.5636,-0.042 -4.87006,-2.35651 -9.56992,-5.14355 z m 101.37712,-94.02754 c 97.47807,-56.36269 107.86903,-62.66458 106.17183,-64.39091 -0.9873,-1.00425 -5.79313,-0.79527 -33.92607,1.47519 -14.3132,1.15514 -40.70621,3.15911 -58.65113,4.45327 -41.96027,3.0261 -81.22163,6.18518 -82.81733,6.66373 -1.90779,0.57214 -2.25571,7.35782 -2.26384,44.15273 -0.007,30.24774 0.29637,41.41925 1.25119,46.12298 0.31671,1.56018 0.5589,1.65838 2.08707,0.84617 0.95084,-0.50535 31.61756,-18.20077 68.14828,-39.32316 z m -113.08284,37.68304 c 1.56949,-5.31189 1.17879,-87.88687 -0.42342,-89.48907 -0.35162,-0.35163 -61.14109,-5.07261 -120.70984,-9.37446 -20.93573,-1.5119 -41.45755,-3.08382 -45.60403,-3.49315 -4.21437,-0.41602 -8.32419,-0.45378 -9.31946,-0.0856 -1.62104,0.59966 -1.18959,1.03929 4.82013,4.91153 9.43488,6.07917 46.90645,28.12277 99.43246,58.49367 24.9947,14.45211 51.03813,29.53308 57.87429,33.51326 6.83616,3.98019 12.65079,7.24458 12.9214,7.2542 0.27061,0.01 0.72443,-0.76904 1.00847,-1.73038 z M 304.69269,536.9881 c 0.62777,-0.62777 0.0301,-2.28691 -2.21856,-6.15884 -1.69279,-2.91478 -23.61589,-40.78159 -48.718,-84.14847 -25.10211,-43.36688 -51.29096,-88.56205 -58.19746,-100.4337 l -12.55726,-21.58485 -1.45089,1.77552 c -1.76094,2.15494 -27.05169,53.02456 -62.2914,125.29247 -30.370402,62.28217 -34.131835,70.18143 -33.648724,70.66453 0.826123,0.82613 124.114784,10.38461 195.272374,15.13933 12.4381,0.83111 22.66739,0.59655 23.80992,-0.54599 z m 116.79742,-0.59125 c 35.08161,-2.29388 138.6061,-9.76603 156.92091,-11.32618 21.14701,-1.80142 24.19267,-2.29749 23.83253,-3.88178 -0.26388,-1.16084 -39.23679,-81.43828 -74.73425,-153.9396 -11.66241,-23.81973 -21.46397,-43.30861 -21.78124,-43.30861 -0.31727,0 -8.89108,14.42002 -19.0529,32.04449 -34.5948,60.00051 -100.61821,173.98597 -102.54792,177.04283 -1.05783,1.67571 -1.71531,3.38332 -1.46108,3.79468 0.6816,1.10285 18.42052,0.90828 38.82395,-0.42583 z m -75.02023,-21.16989 c 4.13357,-6.36184 28.05746,-46.62795 46.03418,-77.47978 26.24777,-45.04667 78.19771,-135.12481 78.73144,-136.51568 0.3454,-0.9001 -0.56599,-1.24826 -4.28533,-1.637 -17.51435,-1.83061 -247.56081,-1.08838 -249.45405,0.80486 -0.69947,0.69947 7.04661,14.68831 33.11783,59.80838 68.46324,118.48569 91.8146,157.96077 93.42439,157.93236 0.29975,-0.005 1.39394,-1.3162 2.43154,-2.91314 z M 91.739725,415.80155 c 35.445175,-72.83187 57.556445,-119.26316 60.571935,-127.1945 0.90843,-2.38934 3.28253,-0.81485 -32.02376,-21.23804 -34.294637,-19.83801 -44.083773,-25.27276 -44.597039,-24.7595 -1.761439,1.76145 -2.148988,17.64547 -2.173907,89.09953 -0.0257,73.69308 0.659807,116.52542 1.864923,116.52542 0.315529,0 7.67656,-14.59481 16.357848,-32.43291 z M 613.8222,426.44334 c 1.88323,-44.31054 0.77799,-181.17927 -1.4815,-183.4615 -0.30292,-0.30597 -12.25593,6.20375 -26.56225,14.46603 -52.35028,30.23369 -50.12181,28.85531 -49.82648,30.81916 0.62917,4.1837 10.17023,24.54859 46.92133,100.15105 27.71025,57.00411 28.78052,59.12302 29.49966,58.40388 0.33495,-0.33496 0.98712,-9.50534 1.44924,-20.37862 z M 438.71045,258.02912 c 14.59831,-0.27937 26.79074,-0.75651 27.09431,-1.06033 0.30355,-0.30382 -1.14407,-3.27522 -3.21697,-6.60311 C 448.84429,228.3014 346.21095,76.210669 344.24534,74.995854 c -0.65541,-0.405068 -13.94299,18.810864 -56.11298,81.148216 -51.02749,75.43087 -67.59452,100.33068 -67.09027,100.83494 0.28645,0.28643 9.67286,0.72477 20.85871,0.97408 28.49562,0.63512 164.8421,0.68779 196.80965,0.0761 z M 185.54644,235.18715 c 34.02974,-49.22075 87.95638,-129.83616 87.95638,-131.48674 0,-0.63692 -0.35975,-1.15804 -0.79944,-1.15804 -1.22444,0 -59.10895,33.25623 -127.76694,73.40561 -45.907351,26.84539 -48.63409,28.50286 -48.340385,29.38397 0.520555,1.56167 75.437895,45.58332 77.578915,45.5856 0.27258,2.9e-4 5.38974,-7.07839 11.37147,-15.7304 z m 341.98181,8.89726 c 14.43411,-8.04492 46.93266,-27.30995 56.18593,-33.30685 4.19853,-2.72099 7.50303,-5.33921 7.34333,-5.81829 -0.58652,-1.75959 -51.40589,-31.83422 -126.45299,-74.8342 -40.19796,-23.03236 -48.33072,-27.5827 -49.29815,-27.5827 -1.95064,0 2.47611,7.3993 21.24908,35.51778 23.41384,35.06965 49.97715,74.0562 66.71727,97.91986 9.15011,13.04382 10.71157,14.90446 12.13481,14.45983 0.89839,-0.28066 6.35271,-3.14061 12.12072,-6.35543 z"
     id="path4859"
     inkscape:connector-curvature="0"
     transform="scale(0.75000001)" />
  <path
     style="fill:#ff0000;stroke:#ff0000;stroke-width:0.13732652"
     d="m 337.78904,432.99166 c -4.29285,-0.47199 -6.58331,-1.18313 -9.1057,-2.82713 -3.62305,-2.36137 -5.64491,-5.74879 -6.54799,-10.97047 -0.85747,-4.958 -1.00333,-17.33184 -0.26661,-22.61645 0.69469,-4.9831 2.01658,-7.52351 6.23079,-11.97435 l 1.8057,-1.90709 -0.31522,-0.35753 c -0.17337,-0.19665 -1.18622,-1.25955 -2.25078,-2.362 -2.24197,-2.32178 -2.90208,-3.1545 -3.4766,-4.38574 -0.88637,-1.89955 -1.11003,-4.26868 -1.11051,-11.76283 -5.6e-4,-8.75531 0.46721,-13.10691 1.76937,-16.46039 1.45605,-3.7498 4.57629,-6.46464 8.66711,-7.54105 4.81589,-1.26718 12.43841,-1.29403 17.44047,-0.0614 2.28955,0.56419 4.56831,1.85538 6.28338,3.56029 2.61963,2.60409 3.9161,5.86681 4.66384,11.73708 0.20884,1.63952 0.24475,3.03459 0.24387,9.47554 -10e-4,8.31848 -0.029,8.65131 -0.87161,10.42389 -0.5483,1.15339 -1.00365,1.64017 -4.54663,4.86052 -1.70224,1.54723 -3.09498,2.88659 -3.09498,2.97636 0,0.0898 0.86516,0.95736 1.92257,1.92799 1.05742,0.97062 3.14306,2.90725 4.63477,4.30361 l 2.7122,2.53884 -6.9e-4,9.76124 c -4.1e-4,5.36868 -0.0638,10.78089 -0.14092,12.02713 -0.57843,9.34231 -2.36158,13.65408 -6.88991,16.66019 -2.47072,1.64018 -3.89479,2.14781 -7.84118,2.79512 -1.49072,0.24452 -8.21395,0.36567 -9.91479,0.17866 z m 7.85709,-12.5529 c 0.62045,-0.19853 1.39292,-0.56123 1.71659,-0.806 2.32789,-1.76047 3.18569,-5.9356 3.19369,-15.54461 0.003,-4.11635 -0.0327,-5.0036 -0.25173,-6.1797 -0.75094,-4.0326 -1.89257,-5.7992 -4.57897,-7.08566 -3.86816,-1.85237 -4.73589,-1.80268 -7.90989,0.45295 -2.56342,1.82172 -2.90205,2.74543 -3.13626,8.55528 -0.25926,6.43129 0.16258,15.2297 0.85501,17.83315 0.38877,1.46172 2.02828,2.55227 4.58902,3.05248 1.5325,0.29935 4.12644,0.16883 5.52254,-0.27789 z m -2.13046,-43.21369 c 2.45034,-0.51538 4.24974,-2.4288 5.04869,-5.36863 1.10658,-4.07178 1.07199,-11.11158 -0.0756,-15.39283 -0.4274,-1.59442 -1.20005,-3.00216 -2.11031,-3.8449 -1.56704,-1.45081 -3.63991,-2.20538 -5.28446,-1.92368 -2.51501,0.4308 -4.33695,2.23734 -5.36881,5.32344 -1.40868,4.21311 -1.46006,11.33994 -0.11275,15.64022 0.67101,2.14169 1.98514,4.09814 3.29747,4.90921 1.17961,0.72903 3.01742,0.99126 4.60582,0.65717 z"
     id="path4861"
     inkscape:connector-curvature="0"
     transform="scale(0.75000001)" />
  <path
     style="fill:#ff0000;stroke:#ff0000;stroke-width:0.03433163"
     d="m 323.39722,390.79748 c 0,-0.12137 0.77139,-1.45453 1.22913,-2.12424 0.97505,-1.42657 1.85243,-2.4517 4.34275,-5.074 l 0.85728,-0.90272 -0.0818,-0.0929 c -0.24098,-0.27378 -0.58533,-0.63895 -1.8844,-1.99831 -2.10873,-2.20662 -2.426,-2.5528 -2.97365,-3.24458 -1.20671,-1.5243 -1.7588,-3.11445 -1.98455,-5.71598 -0.27275,-3.14325 -0.29114,-10.85219 -0.0365,-15.29474 0.39489,-6.88885 1.6347,-10.58614 4.47546,-13.34642 l 0.48582,-0.47206 h 14.15813 14.15813 l 0.32084,0.28637 c 1.89645,1.69273 3.21609,3.84587 4.04825,6.60518 0.42906,1.42271 0.75646,2.99358 1.02513,4.91853 0.21862,1.56641 0.26561,2.24766 0.31489,4.56611 0.0462,2.17228 0.0196,11.52121 -0.0355,12.47955 -0.0711,1.23699 -0.18491,1.98134 -0.40163,2.62637 -0.1523,0.4533 -0.60228,1.38771 -0.83809,1.74033 -0.43069,0.64406 -1.10448,1.33622 -2.91559,2.99509 -2.33764,2.14114 -2.98105,2.74011 -3.63905,3.38775 l -0.66817,0.65764 0.25411,0.28187 c 0.28064,0.31131 1.19074,1.17429 2.98763,2.83294 0.65144,0.60132 2.10275,1.95201 3.22513,3.00151 l 2.04069,1.9082 -8.11587,0.009 -8.11587,0.009 -0.64512,-0.29334 c -1.50268,-0.68327 -2.28673,-0.92911 -3.08575,-0.96753 -0.94964,-0.0457 -1.76417,0.23837 -3.03863,1.0596 l -0.31212,0.20113 h -7.57557 c -5.5921,0 -7.57558,-0.0101 -7.57558,-0.0387 z m 19.39854,-13.5241 c 2.45417,-0.25185 4.33013,-1.77701 5.35229,-4.35143 0.56153,-1.41429 0.91553,-3.4043 1.10663,-6.22095 0.0559,-0.82447 0.0561,-3.69161 2.4e-4,-4.54894 -0.15827,-2.42944 -0.46159,-4.4459 -0.88563,-5.88761 -0.46602,-1.58439 -1.25162,-2.93024 -2.17762,-3.73054 -1.12576,-0.97295 -2.41131,-1.59608 -3.6775,-1.78256 -1.46392,-0.21561 -3.0896,0.3078 -4.35072,1.40076 -1.08809,0.943 -2.01113,2.55323 -2.55979,4.46551 -0.63362,2.20837 -0.95213,5.04233 -0.89983,8.00631 0.0938,5.31871 1.16367,8.91029 3.30933,11.10997 0.61816,0.63373 1.14715,0.97315 1.91509,1.22883 0.90462,0.30117 1.90438,0.40948 2.86751,0.31065 z"
     id="path4863"
     inkscape:connector-curvature="0"
     transform="scale(0.75000001)" />
  <path
     style="fill:#ff0000;stroke:#ff0000;stroke-width:0.03433163"
     d="m 362.00197,364.09179 c 0,-1.0102 0.004,-1.42347 0.01,-0.91837 0.005,0.50511 0.005,1.33164 0,1.83675 -0.005,0.5051 -0.01,0.0918 -0.01,-0.91838 z"
     id="path4865"
     inkscape:connector-curvature="0"
     transform="scale(0.75000001)" />
  <path
     style="fill:#ff0000;stroke:#ff0000;stroke-width:0.03433163"
     d="m 362.00137,364.09179 c 0,-0.63256 0.005,-0.89133 0.0103,-0.57505 0.006,0.31628 0.006,0.83383 0,1.15011 -0.006,0.31628 -0.0103,0.0575 -0.0103,-0.57506 z"
     id="path4867"
     inkscape:connector-curvature="0"
     transform="scale(0.75000001)" />
  <path
     style="fill:#ff0000;stroke:#ff0000;stroke-width:0.03433163"
     d="m 361.89722,364.62393 c 10e-4,-3.91823 0.0117,-5.51131 0.0335,-5.09824 0.0413,0.78156 0.0385,9.4533 -0.003,10.21366 -0.022,0.39974 -0.0315,-1.21206 -0.0303,-5.11542 z"
     id="path4869"
     inkscape:connector-curvature="0"
     transform="scale(0.75000001)" />
  <path
     style="fill:#ff0000;stroke:#ff0000;stroke-width:0.03433163"
     d="m 323.39722,390.77439 c 0,-0.12981 0.7522,-1.42155 1.26352,-2.16981 0.9667,-1.41465 1.77659,-2.35192 4.66727,-5.40134 0.25019,-0.26393 0.4549,-0.49533 0.4549,-0.51422 0,-0.0425 -0.0568,-0.10367 -1.64864,-1.77473 -2.5135,-2.63863 -2.90138,-3.06531 -3.41747,-3.75931 -1.15056,-1.54719 -1.63724,-3.07331 -1.85028,-5.80205 -0.24907,-3.19017 -0.25795,-10.79974 -0.0174,-14.95142 0.40151,-6.93131 1.61597,-10.57751 4.45679,-13.38076 l 0.49579,-0.48922 h 14.18282 14.18282 l 0.46321,0.42477 c 1.57586,1.44507 2.71203,3.18806 3.5577,5.45783 0.48593,1.30423 0.96186,3.28758 1.26174,5.25801 0.28772,1.89056 0.35746,2.74559 0.42284,5.18408 0.0147,0.54759 0.035,0.90292 0.0452,0.78963 0.0216,-0.24044 0.0742,2.77201 0.0777,4.44594 0.004,1.71951 -0.0528,5.72878 -0.0792,5.63039 -0.0386,-0.14412 -0.0639,0.21317 -0.0824,1.16728 -0.0301,1.54603 -0.17713,2.53782 -0.50129,3.38166 -0.058,0.15106 -0.21164,0.49095 -0.34136,0.7553 -0.55453,1.13004 -0.91675,1.52523 -3.94908,4.30862 -2.38495,2.18915 -3.64024,3.38487 -3.63963,3.4669 6.1e-4,0.082 1.19746,1.24412 3.0044,2.91711 0.92523,0.85664 2.53536,2.35457 3.57806,3.32873 l 1.89582,1.77119 -8.14265,0.009 -8.14266,0.009 -0.63665,-0.28911 c -1.7463,-0.793 -2.64013,-1.02957 -3.56659,-0.94395 -0.73056,0.0675 -1.45475,0.36132 -2.44319,0.99121 l -0.37928,0.24171 h -7.58636 c -7.28003,0 -7.58637,-0.002 -7.58637,-0.0618 z m 19.68919,-13.55353 c 1.76655,-0.25362 3.22947,-1.20761 4.26011,-2.77808 1.0326,-1.57345 1.54629,-3.55321 1.85733,-7.15814 0.0883,-1.02398 0.0884,-4.66736 1.4e-4,-5.71622 -0.30546,-3.62828 -0.80229,-5.76896 -1.70894,-7.36323 -0.42482,-0.74701 -0.92443,-1.35081 -1.51375,-1.82945 -1.42322,-1.15591 -3.14515,-1.77817 -4.53681,-1.63946 -0.7622,0.076 -1.26627,0.22384 -1.99723,0.58592 -0.61505,0.30466 -1.03179,0.60308 -1.53171,1.09684 -1.84095,1.81826 -2.86694,4.9722 -3.15503,9.69869 -0.0457,0.74989 -0.0458,3.05035 -7e-5,3.82797 0.22563,3.84137 0.93508,6.52056 2.25811,8.52755 0.68468,1.03864 1.59357,1.90303 2.38598,2.26914 1.03449,0.47796 2.42592,0.65878 3.68189,0.47847 z"
     id="path4871"
     inkscape:connector-curvature="0"
     transform="scale(0.75000001)" />
  <path
     style="fill:#ff0000;stroke:#ff0000;stroke-width:0.03433163"
     d="m 323.40997,390.7295 c 0.0488,-0.24416 0.89211,-1.64826 1.50888,-2.51235 0.82467,-1.15535 1.5494,-1.99235 3.75193,-4.33317 0.53301,-0.56647 1.00125,-1.07096 1.04053,-1.12108 l 0.0714,-0.0911 -0.33464,-0.35477 c -0.18406,-0.19514 -0.92172,-0.9731 -1.63925,-1.72883 -1.60182,-1.68707 -2.06011,-2.17724 -2.40771,-2.57517 -1.87035,-2.14114 -2.41241,-3.76716 -2.62083,-7.86166 -0.0851,-1.67076 -0.11189,-3.76073 -0.0932,-7.26114 0.0181,-3.39654 0.037,-4.29534 0.12702,-6.04237 0.24616,-4.77647 0.87182,-7.98923 2.02279,-10.38718 0.62277,-1.29747 1.32015,-2.28345 2.38445,-3.37122 l 0.54585,-0.55789 h 14.22343 14.22343 l 0.70046,0.69521 c 0.38525,0.38237 0.83365,0.86343 0.99645,1.06903 1.81914,2.29734 2.83507,4.93909 3.50683,9.11889 0.32977,2.05188 0.35694,2.39673 0.53691,6.81483 0.0722,1.77352 0.0383,9.59097 -0.0414,9.5417 -0.0167,-0.0103 -0.0307,0.0401 -0.0312,0.11204 -0.004,0.56244 -0.0755,2.04405 -0.11884,2.45624 -0.12021,1.14358 -0.29585,1.75373 -0.78942,2.74233 -0.53194,1.06544 -0.98584,1.55842 -3.93161,4.27007 -2.65243,2.44163 -3.60482,3.3538 -3.60482,3.45263 0,0.0861 1.24706,1.29479 3.43316,3.32768 1.08574,1.00964 2.66089,2.4772 3.50033,3.26125 l 1.52625,1.42554 -8.16431,0.009 -8.16431,0.009 -0.64025,-0.28802 c -1.49599,-0.67298 -2.22128,-0.89723 -3.0263,-0.93569 -0.48379,-0.0231 -0.88855,0.031 -1.33554,0.17851 -0.36204,0.11949 -1.07482,0.4773 -1.56548,0.78586 l -0.41198,0.25909 h -7.60017 -7.60016 l 0.0213,-0.10664 z m 19.89538,-13.55551 c 2.58933,-0.48337 4.43661,-2.45319 5.23354,-5.58073 0.24238,-0.95119 0.43167,-2.0954 0.57123,-3.45292 0.12591,-1.2248 0.14709,-1.91312 0.12905,-4.19435 -0.0178,-2.25254 -0.0335,-2.55038 -0.21444,-4.05982 -0.42195,-3.52077 -1.16493,-5.58266 -2.52217,-6.99944 -0.93967,-0.98089 -2.32247,-1.75363 -3.67363,-2.05293 -0.50807,-0.11254 -1.46137,-0.1128 -1.98054,-5.4e-4 -2.05409,0.44413 -3.66903,1.91977 -4.67909,4.27551 -1.06945,2.4942 -1.58665,6.35599 -1.40747,10.50907 0.20662,4.78943 1.29932,8.12712 3.31691,10.13162 0.40051,0.39792 0.83115,0.72362 1.21861,0.92166 0.50608,0.25867 1.29421,0.48034 2.02098,0.56842 0.443,0.0537 1.5426,0.0174 1.98702,-0.0655 z"
     id="path4873"
     inkscape:connector-curvature="0"
     transform="scale(0.75000001)" />
  <path
     style="fill:#ff0000;stroke:#ff0000;stroke-width:0.03433163"
     d="m 323.38118,390.75889 c 0.10224,-0.34469 0.97542,-1.78292 1.63132,-2.687 0.82181,-1.13275 1.44497,-1.84396 4.06048,-4.63422 0.3717,-0.39653 0.6719,-0.73989 0.66712,-0.76303 -0.005,-0.0231 -0.88157,-0.9652 -1.94843,-2.09349 -2.73161,-2.88891 -2.83394,-3.00507 -3.39903,-3.85855 -1.08674,-1.64135 -1.45386,-3.21366 -1.65058,-7.06908 -0.0563,-1.10306 -0.0806,-8.22796 -0.0345,-10.11067 0.16232,-6.63217 0.79732,-10.43553 2.21537,-13.26917 0.6278,-1.25451 1.14241,-1.97647 2.20717,-3.09651 l 0.61012,-0.64179 14.25061,-0.002 14.2506,-0.002 0.71876,0.72955 c 0.39531,0.40125 0.82307,0.86075 0.95056,1.0211 1.52237,1.91479 2.45744,4.03887 3.14608,7.14651 0.25093,1.13235 0.5676,3.1213 0.66877,4.20036 0.12753,1.36016 0.25257,4.52383 0.27884,7.05515 0.0251,2.42026 -0.0307,7.064 -0.0856,7.11886 -0.0203,0.0203 -0.036,0.1926 -0.0362,0.39805 0,0.19921 -0.0154,0.65573 -0.0339,1.0145 -0.0887,1.72423 -0.23646,2.48736 -0.66866,3.4544 -0.63726,1.42588 -0.84133,1.65183 -4.77303,5.28499 -0.88748,0.82009 -1.92257,1.79665 -2.30022,2.17014 l -0.68663,0.67907 0.82395,0.8147 c 0.45318,0.44809 1.5278,1.47122 2.38804,2.27364 0.86023,0.8024 2.40094,2.23911 3.42377,3.19267 l 1.85971,1.73375 -8.18471,0.009 -8.18471,0.009 -0.6463,-0.28679 c -1.62602,-0.72151 -2.29609,-0.91595 -3.16117,-0.9173 -0.48151,-7.5e-4 -0.7292,0.0355 -1.14102,0.16686 -0.35977,0.11478 -1.13157,0.49916 -1.61947,0.80654 l -0.36594,0.23055 h -7.62706 -7.62707 z m 20.04855,-13.62 c 2.15931,-0.46343 3.77058,-1.93649 4.69529,-4.29253 0.59701,-1.52109 1.00955,-4.02379 1.09222,-6.626 0.0481,-1.51297 -0.009,-4.50649 -0.10413,-5.4244 -0.38344,-3.71551 -0.99887,-5.82152 -2.14424,-7.33759 -0.81367,-1.07703 -2.09816,-1.97031 -3.48764,-2.42542 -0.62087,-0.20336 -0.98886,-0.26183 -1.64792,-0.26183 -0.85344,0 -1.48099,0.14353 -2.26542,0.51815 -1.08068,0.5161 -2.09068,1.47443 -2.78334,2.64095 -1.11547,1.87858 -1.76304,4.50717 -1.99168,8.08451 -0.0482,0.75451 -0.0477,3.25505 8.9e-4,4.05113 0.21417,3.51064 0.86708,6.10427 2.02203,8.03238 0.44646,0.74533 1.09372,1.52638 1.64592,1.98615 0.55779,0.46442 1.0385,0.71598 1.75801,0.92 0.73364,0.20802 0.98756,0.23653 1.97407,0.22165 0.74811,-0.0113 0.94821,-0.0254 1.23594,-0.0872 z"
     id="path4875"
     inkscape:connector-curvature="0"
     transform="scale(0.75000001)" />
  <path
     style="fill:#ff0000;stroke:#ff0000;stroke-width:0.03433163"
     d="m 323.37814,390.74172 c 0.0627,-0.26089 0.94616,-1.72392 1.55592,-2.57667 0.77651,-1.08594 1.46567,-1.88419 3.57746,-4.14374 0.94648,-1.0127 1.20289,-1.29905 1.20234,-1.34274 -4.6e-4,-0.0358 -0.27328,-0.32988 -2.36963,-2.5539 -2.20246,-2.3366 -2.41536,-2.58049 -2.93194,-3.35865 -1.18804,-1.78964 -1.57488,-3.60362 -1.70344,-7.98796 -0.046,-1.56887 -0.0456,-8.25263 5.8e-4,-9.75018 0.19889,-6.44917 0.82327,-10.01742 2.2456,-12.83352 0.63464,-1.25653 1.19665,-2.02472 2.37691,-3.24891 l 0.39907,-0.41392 h 14.26438 14.26437 l 0.65897,0.67805 c 0.76493,0.78708 0.90627,0.94128 1.14083,1.24452 1.64192,2.12276 2.6456,4.70236 3.29088,8.45799 0.31027,1.80581 0.409,2.67235 0.49734,4.36488 0.14445,2.76762 0.15448,3.26532 0.15092,7.48429 -0.002,2.77821 -0.0166,4.3247 -0.043,4.6691 -0.0217,0.28324 -0.0544,0.86259 -0.0727,1.28744 -0.10025,2.33346 -0.25115,3.07062 -0.89602,4.37728 -0.53091,1.07576 -0.83205,1.39836 -4.3739,4.68568 -1.6685,1.5486 -3.14135,2.96941 -3.14135,3.03036 0,0.0811 1.77229,1.7709 5.68008,5.41581 l 2.77898,2.59204 -8.20741,0.009 -8.20741,0.009 -0.51098,-0.22775 c -1.41859,-0.63226 -2.17161,-0.87916 -2.88824,-0.94699 -0.4929,-0.0467 -1.01302,-0.004 -1.39922,0.11367 -0.46342,0.14168 -1.239,0.52521 -1.84568,0.91269 l -0.23209,0.14824 h -7.64215 -7.64216 z m 20.14642,-13.63263 c 1.90244,-0.45196 3.33765,-1.65587 4.28362,-3.59326 0.63268,-1.29577 1.02823,-2.95164 1.26707,-5.30424 0.12475,-1.22888 0.14976,-2.05413 0.12848,-4.23996 -0.0216,-2.21631 -0.0452,-2.72082 -0.1805,-3.86231 -0.53847,-4.54109 -1.52234,-6.70441 -3.7174,-8.1737 -0.71635,-0.4795 -1.786,-0.93726 -2.5284,-1.08204 -0.41991,-0.0819 -1.41911,-0.0842 -1.85591,-0.004 -0.63654,0.11644 -1.37832,0.41853 -1.96208,0.79904 -0.96721,0.63046 -1.79127,1.55972 -2.39432,2.69996 -0.92557,1.75007 -1.47706,4.06832 -1.7421,7.32313 -0.0694,0.85271 -0.0577,4.05784 0.0181,4.96093 0.36451,4.34039 1.34663,7.12354 3.17843,9.00714 0.7295,0.75013 1.29996,1.09271 2.29135,1.37604 0.60616,0.17323 0.77418,0.18899 1.88289,0.17657 0.89809,-0.0101 1.06846,-0.0207 1.33077,-0.083 z"
     id="path4877"
     inkscape:connector-curvature="0"
     transform="scale(0.75000001)" />
  <path
     style="fill:#ff0000;stroke:#ff0000;stroke-width:0.06866326"
     d="m 654.34685,386.11554 c -0.0252,-15.88954 -0.0457,-37.62661 -0.0457,-48.30461 l -10e-6,-19.41454 h 0.17166 0.17165 V 366.701 c 0,46.79884 -0.004,48.3046 -0.12591,48.3046 -0.12183,0 -0.12739,-0.93559 -0.17164,-28.89006 z"
     id="path4879"
     inkscape:connector-curvature="0"
     transform="scale(0.75000001)" />
  <path
     style="fill:#ff0000;stroke:#ff0000;stroke-width:0.19420904"
     d="m 654.65412,274.22316 c 0,-24.3004 0.0226,-34.24148 0.0502,-22.09127 0.0276,12.1502 0.0276,32.03235 0,44.18255 -0.0276,12.15021 -0.0502,2.20913 -0.0502,-22.09128 z"
     id="path4881"
     inkscape:connector-curvature="0"
     transform="scale(0.75000001)" />
  <path
     style="fill:#ff0000;stroke:#ff0000;stroke-width:0.19420904"
     d="m 654.29959,291.0708 c -0.18865,-39.78098 -0.16613,-60.93309 0.0649,-60.93309 0.12891,0 0.19421,14.82462 0.19421,44.08545 0,24.247 -0.0292,44.08546 -0.065,44.08546 -0.0357,0 -0.12309,-12.25702 -0.19413,-27.23782 z"
     id="path4883"
     inkscape:connector-curvature="0"
     transform="scale(0.75000001)" />
  <path
     style="fill:#ff0000;stroke:#ff0000;stroke-width:0.06866326"
     d="m 614.37964,353.35043 c -0.004,-21.06819 -0.0558,-31.36857 -0.23659,-47.25749 -0.11152,-9.79926 -0.2994,-22.06735 -0.38303,-25.0106 l -0.0434,-1.52776 h 20.53796 20.53796 v 10.94607 c 0,7.04886 -0.0238,10.95422 -0.067,10.96896 -0.0426,0.0146 -0.0836,2.96579 -0.11276,8.12515 -0.0252,4.45625 -0.067,8.24131 -0.0929,8.41125 l -0.0471,0.30899 -0.0494,-0.44631 c -0.0272,-0.24548 -0.0738,-3.47437 -0.10357,-7.17532 l -0.0542,-6.729 -0.0112,7.19248 -0.0112,7.19248 h 0.20598 0.20599 v 28.94156 28.94157 h -20.1355 l -20.1355,-1e-5 -0.005,-22.88202 z"
     id="path4887"
     inkscape:connector-curvature="0"
     transform="scale(0.75000001)" />
  <path
     style="fill:#ff0000;stroke:#ff0000;stroke-width:0.06866326"
     d="m 654.57099,317.47396 c 0.0297,-1.27714 0.0601,-1.37776 0.0727,-0.24041 0.006,0.57591 -0.0116,1.04716 -0.0399,1.0472 -0.0283,5e-5 -0.043,-0.363 -0.0327,-0.80679 z"
     id="path4889"
     inkscape:connector-curvature="0"
     transform="scale(0.75000001)" />
  <path
     style="fill:#ff0000;stroke:#ff0000;stroke-width:0.06866326"
     d="m 654.32288,317.64553 c 0.0112,-0.64575 0.0384,-0.56884 0.0729,0.20611 0.0105,0.2361 -0.004,0.42922 -0.0324,0.42915 -0.0283,-7e-5 -0.0466,-0.28594 -0.0405,-0.63526 z"
     id="path4891"
     inkscape:connector-curvature="0"
     transform="scale(0.75000001)" />
  <path
     style="fill:#ff0000;stroke:#ff0000;stroke-width:0.06866326"
     d="m 614.34897,355.41033 c -10e-4,-30.61602 -0.16273,-50.60821 -0.59288,-73.43537 l -0.0456,-2.42038 h 20.54102 20.54103 l -10e-4,10.69431 c -6.9e-4,5.88186 -0.0301,11.29682 -0.0654,12.03323 -0.0353,0.73642 -0.0727,4.63478 -0.0832,8.66303 -0.0105,4.02824 -0.0429,7.30938 -0.072,7.29141 -0.0291,-0.018 -0.0529,6e-5 -0.0529,0.0401 0,0.04 0.0309,0.0727 0.0687,0.0727 0.0457,0 0.0687,9.69296 0.0687,28.94156 v 28.94157 h -20.15267 -20.15266 l -9e-4,-20.82213 z m 40.10024,-37.12967 c 0,-0.0378 -0.0136,-0.0687 -0.0303,-0.0687 -0.0167,0 -0.0494,0.0309 -0.0727,0.0687 -0.0233,0.0378 -0.01,0.0687 0.0303,0.0687 0.04,0 0.0727,-0.0309 0.0727,-0.0687 z m -0.0871,-2.01047 c -0.0144,-0.15936 -0.026,-0.0117 -0.0258,0.32822 2.1e-4,0.33989 0.012,0.47027 0.0262,0.28975 0.0142,-0.18052 0.014,-0.45861 -4.1e-4,-0.61797 z"
     id="path4893"
     inkscape:connector-curvature="0"
     transform="scale(0.75000001)" />
  <path
     style="fill:#ff0000;stroke:#ff0000;stroke-width:0.09710452"
     d="m 654.51984,231.97733 c 0,-1.5915 -0.0401,-1.99676 -0.1883,-1.90514 -0.0726,0.0449 -0.2323,-37.62453 -0.1598,-37.69703 0.0221,-0.0221 0.13129,0.009 0.24268,0.0682 l 0.20253,0.10838 v 20.53419 c 0,11.29381 -0.0218,20.53419 -0.0486,20.53419 -0.0267,0 -0.0485,-0.73927 -0.0485,-1.64283 z"
     id="path4895"
     inkscape:connector-curvature="0"
     transform="scale(0.75000001)" />
  <path
     style="fill:#ff0000;stroke:#ff0000;stroke-width:0.09710452"
     d="m 614.185,315.455 c -0.0788,-9.06493 -0.21742,-19.88115 -0.35323,-27.55341 -0.0544,-3.07093 -0.10038,-6.4356 -0.10226,-7.47705 -0.004,-2.00818 -0.12499,-7.76191 -0.28572,-13.54608 -0.28948,-10.41825 -0.66902,-18.40788 -1.02404,-21.5572 -0.18518,-1.64275 -0.23513,-1.89354 -0.37718,-1.89354 -0.50377,0 -11.35981,5.90843 -21.27185,11.57727 -6.93292,3.96504 -34.08702,19.65995 -38.97264,22.52596 -1.0867,0.63748 -2.03711,1.18258 -2.11202,1.21133 -0.11665,0.0448 -0.13556,-3.38214 -0.13172,-23.87011 l 0.004,-23.92238 4.53515,-2.6654 c 12.06179,-7.08895 25.85867,-15.46155 30.17075,-18.30903 3.50513,-2.31462 6.50689,-4.68536 6.31847,-4.99023 -0.46455,-0.75165 -9.80595,-6.62343 -24.76132,-15.56437 -2.66652,-1.59415 -4.86958,-2.91982 -4.89569,-2.94593 -0.0261,-0.0261 18.71714,-0.0475 41.65166,-0.0475 h 41.69913 l 4.92573,2.8403 c 2.70916,1.56217 4.92641,2.89019 4.92723,2.95116 9.7e-4,0.061 0.11213,0.13863 0.24735,0.17257 l 0.24587,0.0617 -0.0112,26.28842 c -0.008,18.56245 0.0233,27.42778 0.10602,30.16521 0.089,2.94358 0.0978,10.90268 0.0367,33.06409 -0.0443,16.05301 -0.0701,31.86375 -0.0574,35.13495 l 0.023,5.94766 h -20.23463 -20.23465 z m 40.03983,-90.33148 -0.0522,-4.95233 -0.009,5.29219 c -0.005,2.91071 0.0183,5.13926 0.0523,4.95233 0.0339,-0.18692 0.0381,-2.56841 0.009,-5.29219 z"
     id="path4897"
     inkscape:connector-curvature="0"
     transform="scale(0.75000001)" />
  <path
     style="fill:#ff0000;stroke:#ff0000;stroke-width:0.06866326"
     d="m 343.69495,732.97539 c -0.25599,-0.15247 -0.45098,-0.29167 -0.43332,-0.30933 0.0177,-0.0177 0.17274,0.0216 0.34462,0.0873 0.19387,0.074 0.40306,0.10467 0.55096,0.0807 0.38919,-0.0632 3.68822,-1.86339 12.00834,-6.55275 2.37319,-1.33758 4.32862,-2.41823 4.34539,-2.40146 0.0436,0.0436 -16.15895,9.38812 -16.26366,9.37977 -0.0478,-0.004 -0.29635,-0.13168 -0.55233,-0.28415 z"
     id="path4899"
     inkscape:connector-curvature="0"
     transform="scale(0.75000001)" />
  <path
     style="fill:#ff0000;stroke:#ff0000;stroke-width:0.06866326"
     d="m 343.72509,733.00899 c -0.23421,-0.14162 -0.42417,-0.2827 -0.42212,-0.31351 0.002,-0.0308 -0.46853,-0.29693 -1.04571,-0.59138 -2.03664,-1.03901 -4.50723,-2.42681 -8.80836,-4.94789 -6.43446,-3.77152 -33.78952,-19.61404 -60.25202,-34.89459 l -6.35135,-3.66754 -0.0173,-16.69887 -0.0173,-16.69887 h 12.53114 12.53115 l 4.72064,2.73629 c 2.59635,1.50496 7.03802,4.08069 9.87038,5.72386 10.46864,6.07327 15.11247,8.68871 15.29966,8.61688 0.11331,-0.0435 0.48766,-0.81731 0.62325,-1.28832 0.14671,-0.50969 0.22129,-1.09536 0.34489,-2.70836 0.17472,-2.28032 0.33933,-6.24817 0.41731,-10.05916 0.0213,-1.03854 0.0559,-2.14316 0.077,-2.45472 l 0.0384,-0.56647 h 20.82554 20.82553 l 0.0443,1.49343 c 0.10993,3.7085 0.18309,5.78048 0.24788,7.02082 0.28296,5.41662 0.77643,9.06355 1.22639,9.06355 0.0661,0 0.40245,-0.13737 0.74742,-0.30527 0.75219,-0.3661 3.70459,-2.06032 24.19033,-13.88155 l 5.87643,-3.39098 h 14.53372 14.53372 v 15.43985 15.43984 l -6.88349,3.96886 c -19.57553,11.28678 -44.7666,25.72889 -55.6846,31.92415 -1.91585,1.08712 -3.47012,1.99799 -3.45394,2.02417 0.0162,0.0262 -0.13118,0.14054 -0.32746,0.25415 -0.19628,0.1136 -2.00994,1.16525 -4.03036,2.337 -7.5134,4.35746 -11.58851,6.68211 -11.71369,6.68211 -0.0393,0 -0.26312,-0.11587 -0.49733,-0.25748 z"
     id="path4901"
     inkscape:connector-curvature="0"
     transform="scale(0.75000001)" />
</svg>
